<?xml version="1.0" encoding="utf-8" standalone="no"?>
<!DOCTYPE svg PUBLIC "-//W3C//DTD SVG 1.1//EN"
  "http://www.w3.org/Graphics/SVG/1.1/DTD/svg11.dtd">
<svg xmlns:xlink="http://www.w3.org/1999/xlink" width="711.468125pt" height="567.408125pt" viewBox="0 0 711.468125 567.408125" xmlns="http://www.w3.org/2000/svg" version="1.1">
 <metadata>
  <rdf:RDF xmlns:dc="http://purl.org/dc/elements/1.1/" xmlns:cc="http://creativecommons.org/ns#" xmlns:rdf="http://www.w3.org/1999/02/22-rdf-syntax-ns#">
   <cc:Work>
    <dc:type rdf:resource="http://purl.org/dc/dcmitype/StillImage"/>
    <dc:date>2026-01-07T17:14:54.712525</dc:date>
    <dc:format>image/svg+xml</dc:format>
    <dc:creator>
     <cc:Agent>
      <dc:title>Matplotlib v3.10.7, https://matplotlib.org/</dc:title>
     </cc:Agent>
    </dc:creator>
   </cc:Work>
  </rdf:RDF>
 </metadata>
 <defs>
  <style type="text/css">*{stroke-linejoin: round; stroke-linecap: butt}</style>
 </defs>
 <g id="figure_1">
  <g id="patch_1">
   <path d="M 0 567.408125 
L 711.468125 567.408125 
L 711.468125 0 
L 0 0 
z
" style="fill: #ffffff"/>
  </g>
  <g id="axes_1">
   <g id="patch_2">
    <path d="M 51.563125 380.1975 
L 704.268125 380.1975 
L 704.268125 7.2 
L 51.563125 7.2 
z
" style="fill: #ffffff"/>
   </g>
   <g id="matplotlib.axis_1">
    <g id="xtick_1">
     <g id="line2d_1">
      <path d="M 81.231534 380.1975 
L 81.231534 7.2 
" clip-path="url(#p4b48c61aa9)" style="fill: none; stroke-dasharray: 2.96,1.28; stroke-dashoffset: 0; stroke: #b0b0b0; stroke-opacity: 0.6; stroke-width: 0.8"/>
     </g>
     <g id="line2d_2">
      <defs>
       <path id="m4546218ee2" d="M 0 0 
L 0 3.5 
" style="stroke: #000000; stroke-width: 0.8"/>
      </defs>
      <g>
       <use xlink:href="#m4546218ee2" x="81.231534" y="380.1975" style="stroke: #000000; stroke-width: 0.8"/>
      </g>
     </g>
    </g>
    <g id="xtick_2">
     <g id="line2d_3">
      <path d="M 161.633727 380.1975 
L 161.633727 7.2 
" clip-path="url(#p4b48c61aa9)" style="fill: none; stroke-dasharray: 2.96,1.28; stroke-dashoffset: 0; stroke: #b0b0b0; stroke-opacity: 0.6; stroke-width: 0.8"/>
     </g>
     <g id="line2d_4">
      <g>
       <use xlink:href="#m4546218ee2" x="161.633727" y="380.1975" style="stroke: #000000; stroke-width: 0.8"/>
      </g>
     </g>
    </g>
    <g id="xtick_3">
     <g id="line2d_5">
      <path d="M 242.035919 380.1975 
L 242.035919 7.2 
" clip-path="url(#p4b48c61aa9)" style="fill: none; stroke-dasharray: 2.96,1.28; stroke-dashoffset: 0; stroke: #b0b0b0; stroke-opacity: 0.6; stroke-width: 0.8"/>
     </g>
     <g id="line2d_6">
      <g>
       <use xlink:href="#m4546218ee2" x="242.035919" y="380.1975" style="stroke: #000000; stroke-width: 0.8"/>
      </g>
     </g>
    </g>
    <g id="xtick_4">
     <g id="line2d_7">
      <path d="M 322.438112 380.1975 
L 322.438112 7.2 
" clip-path="url(#p4b48c61aa9)" style="fill: none; stroke-dasharray: 2.96,1.28; stroke-dashoffset: 0; stroke: #b0b0b0; stroke-opacity: 0.6; stroke-width: 0.8"/>
     </g>
     <g id="line2d_8">
      <g>
       <use xlink:href="#m4546218ee2" x="322.438112" y="380.1975" style="stroke: #000000; stroke-width: 0.8"/>
      </g>
     </g>
    </g>
    <g id="xtick_5">
     <g id="line2d_9">
      <path d="M 402.840305 380.1975 
L 402.840305 7.2 
" clip-path="url(#p4b48c61aa9)" style="fill: none; stroke-dasharray: 2.96,1.28; stroke-dashoffset: 0; stroke: #b0b0b0; stroke-opacity: 0.6; stroke-width: 0.8"/>
     </g>
     <g id="line2d_10">
      <g>
       <use xlink:href="#m4546218ee2" x="402.840305" y="380.1975" style="stroke: #000000; stroke-width: 0.8"/>
      </g>
     </g>
    </g>
    <g id="xtick_6">
     <g id="line2d_11">
      <path d="M 483.242497 380.1975 
L 483.242497 7.2 
" clip-path="url(#p4b48c61aa9)" style="fill: none; stroke-dasharray: 2.96,1.28; stroke-dashoffset: 0; stroke: #b0b0b0; stroke-opacity: 0.6; stroke-width: 0.8"/>
     </g>
     <g id="line2d_12">
      <g>
       <use xlink:href="#m4546218ee2" x="483.242497" y="380.1975" style="stroke: #000000; stroke-width: 0.8"/>
      </g>
     </g>
    </g>
    <g id="xtick_7">
     <g id="line2d_13">
      <path d="M 563.64469 380.1975 
L 563.64469 7.2 
" clip-path="url(#p4b48c61aa9)" style="fill: none; stroke-dasharray: 2.96,1.28; stroke-dashoffset: 0; stroke: #b0b0b0; stroke-opacity: 0.6; stroke-width: 0.8"/>
     </g>
     <g id="line2d_14">
      <g>
       <use xlink:href="#m4546218ee2" x="563.64469" y="380.1975" style="stroke: #000000; stroke-width: 0.8"/>
      </g>
     </g>
    </g>
    <g id="xtick_8">
     <g id="line2d_15">
      <path d="M 644.046883 380.1975 
L 644.046883 7.2 
" clip-path="url(#p4b48c61aa9)" style="fill: none; stroke-dasharray: 2.96,1.28; stroke-dashoffset: 0; stroke: #b0b0b0; stroke-opacity: 0.6; stroke-width: 0.8"/>
     </g>
     <g id="line2d_16">
      <g>
       <use xlink:href="#m4546218ee2" x="644.046883" y="380.1975" style="stroke: #000000; stroke-width: 0.8"/>
      </g>
     </g>
    </g>
   </g>
   <g id="matplotlib.axis_2">
    <g id="ytick_1">
     <g id="line2d_17">
      <path d="M 51.563125 363.243068 
L 704.268125 363.243068 
" clip-path="url(#p4b48c61aa9)" style="fill: none; stroke-dasharray: 2.96,1.28; stroke-dashoffset: 0; stroke: #b0b0b0; stroke-opacity: 0.6; stroke-width: 0.8"/>
     </g>
     <g id="line2d_18">
      <defs>
       <path id="m32c7a44f7b" d="M 0 0 
L -3.5 0 
" style="stroke: #000000; stroke-width: 0.8"/>
      </defs>
      <g>
       <use xlink:href="#m32c7a44f7b" x="51.563125" y="363.243068" style="stroke: #000000; stroke-width: 0.8"/>
      </g>
     </g>
     <g id="text_1">
      <!-- 0.0 -->
      <g transform="translate(28.66 367.042287) scale(0.1 -0.1)">
       <defs>
        <path id="DejaVuSans-30" d="M 2034 4250 
Q 1547 4250 1301 3770 
Q 1056 3291 1056 2328 
Q 1056 1369 1301 889 
Q 1547 409 2034 409 
Q 2525 409 2770 889 
Q 3016 1369 3016 2328 
Q 3016 3291 2770 3770 
Q 2525 4250 2034 4250 
z
M 2034 4750 
Q 2819 4750 3233 4129 
Q 3647 3509 3647 2328 
Q 3647 1150 3233 529 
Q 2819 -91 2034 -91 
Q 1250 -91 836 529 
Q 422 1150 422 2328 
Q 422 3509 836 4129 
Q 1250 4750 2034 4750 
z
" transform="scale(0.015625)"/>
        <path id="DejaVuSans-2e" d="M 684 794 
L 1344 794 
L 1344 0 
L 684 0 
L 684 794 
z
" transform="scale(0.015625)"/>
       </defs>
       <use xlink:href="#DejaVuSans-30"/>
       <use xlink:href="#DejaVuSans-2e" transform="translate(63.623047 0)"/>
       <use xlink:href="#DejaVuSans-30" transform="translate(95.410156 0)"/>
      </g>
     </g>
    </g>
    <g id="ytick_2">
     <g id="line2d_19">
      <path d="M 51.563125 295.425341 
L 704.268125 295.425341 
" clip-path="url(#p4b48c61aa9)" style="fill: none; stroke-dasharray: 2.96,1.28; stroke-dashoffset: 0; stroke: #b0b0b0; stroke-opacity: 0.6; stroke-width: 0.8"/>
     </g>
     <g id="line2d_20">
      <g>
       <use xlink:href="#m32c7a44f7b" x="51.563125" y="295.425341" style="stroke: #000000; stroke-width: 0.8"/>
      </g>
     </g>
     <g id="text_2">
      <!-- 0.2 -->
      <g transform="translate(28.66 299.22456) scale(0.1 -0.1)">
       <defs>
        <path id="DejaVuSans-32" d="M 1228 531 
L 3431 531 
L 3431 0 
L 469 0 
L 469 531 
Q 828 903 1448 1529 
Q 2069 2156 2228 2338 
Q 2531 2678 2651 2914 
Q 2772 3150 2772 3378 
Q 2772 3750 2511 3984 
Q 2250 4219 1831 4219 
Q 1534 4219 1204 4116 
Q 875 4013 500 3803 
L 500 4441 
Q 881 4594 1212 4672 
Q 1544 4750 1819 4750 
Q 2544 4750 2975 4387 
Q 3406 4025 3406 3419 
Q 3406 3131 3298 2873 
Q 3191 2616 2906 2266 
Q 2828 2175 2409 1742 
Q 1991 1309 1228 531 
z
" transform="scale(0.015625)"/>
       </defs>
       <use xlink:href="#DejaVuSans-30"/>
       <use xlink:href="#DejaVuSans-2e" transform="translate(63.623047 0)"/>
       <use xlink:href="#DejaVuSans-32" transform="translate(95.410156 0)"/>
      </g>
     </g>
    </g>
    <g id="ytick_3">
     <g id="line2d_21">
      <path d="M 51.563125 227.607614 
L 704.268125 227.607614 
" clip-path="url(#p4b48c61aa9)" style="fill: none; stroke-dasharray: 2.96,1.28; stroke-dashoffset: 0; stroke: #b0b0b0; stroke-opacity: 0.6; stroke-width: 0.8"/>
     </g>
     <g id="line2d_22">
      <g>
       <use xlink:href="#m32c7a44f7b" x="51.563125" y="227.607614" style="stroke: #000000; stroke-width: 0.8"/>
      </g>
     </g>
     <g id="text_3">
      <!-- 0.4 -->
      <g transform="translate(28.66 231.406832) scale(0.1 -0.1)">
       <defs>
        <path id="DejaVuSans-34" d="M 2419 4116 
L 825 1625 
L 2419 1625 
L 2419 4116 
z
M 2253 4666 
L 3047 4666 
L 3047 1625 
L 3713 1625 
L 3713 1100 
L 3047 1100 
L 3047 0 
L 2419 0 
L 2419 1100 
L 313 1100 
L 313 1709 
L 2253 4666 
z
" transform="scale(0.015625)"/>
       </defs>
       <use xlink:href="#DejaVuSans-30"/>
       <use xlink:href="#DejaVuSans-2e" transform="translate(63.623047 0)"/>
       <use xlink:href="#DejaVuSans-34" transform="translate(95.410156 0)"/>
      </g>
     </g>
    </g>
    <g id="ytick_4">
     <g id="line2d_23">
      <path d="M 51.563125 159.789886 
L 704.268125 159.789886 
" clip-path="url(#p4b48c61aa9)" style="fill: none; stroke-dasharray: 2.96,1.28; stroke-dashoffset: 0; stroke: #b0b0b0; stroke-opacity: 0.6; stroke-width: 0.8"/>
     </g>
     <g id="line2d_24">
      <g>
       <use xlink:href="#m32c7a44f7b" x="51.563125" y="159.789886" style="stroke: #000000; stroke-width: 0.8"/>
      </g>
     </g>
     <g id="text_4">
      <!-- 0.6 -->
      <g transform="translate(28.66 163.589105) scale(0.1 -0.1)">
       <defs>
        <path id="DejaVuSans-36" d="M 2113 2584 
Q 1688 2584 1439 2293 
Q 1191 2003 1191 1497 
Q 1191 994 1439 701 
Q 1688 409 2113 409 
Q 2538 409 2786 701 
Q 3034 994 3034 1497 
Q 3034 2003 2786 2293 
Q 2538 2584 2113 2584 
z
M 3366 4563 
L 3366 3988 
Q 3128 4100 2886 4159 
Q 2644 4219 2406 4219 
Q 1781 4219 1451 3797 
Q 1122 3375 1075 2522 
Q 1259 2794 1537 2939 
Q 1816 3084 2150 3084 
Q 2853 3084 3261 2657 
Q 3669 2231 3669 1497 
Q 3669 778 3244 343 
Q 2819 -91 2113 -91 
Q 1303 -91 875 529 
Q 447 1150 447 2328 
Q 447 3434 972 4092 
Q 1497 4750 2381 4750 
Q 2619 4750 2861 4703 
Q 3103 4656 3366 4563 
z
" transform="scale(0.015625)"/>
       </defs>
       <use xlink:href="#DejaVuSans-30"/>
       <use xlink:href="#DejaVuSans-2e" transform="translate(63.623047 0)"/>
       <use xlink:href="#DejaVuSans-36" transform="translate(95.410156 0)"/>
      </g>
     </g>
    </g>
    <g id="ytick_5">
     <g id="line2d_25">
      <path d="M 51.563125 91.972159 
L 704.268125 91.972159 
" clip-path="url(#p4b48c61aa9)" style="fill: none; stroke-dasharray: 2.96,1.28; stroke-dashoffset: 0; stroke: #b0b0b0; stroke-opacity: 0.6; stroke-width: 0.8"/>
     </g>
     <g id="line2d_26">
      <g>
       <use xlink:href="#m32c7a44f7b" x="51.563125" y="91.972159" style="stroke: #000000; stroke-width: 0.8"/>
      </g>
     </g>
     <g id="text_5">
      <!-- 0.8 -->
      <g transform="translate(28.66 95.771378) scale(0.1 -0.1)">
       <defs>
        <path id="DejaVuSans-38" d="M 2034 2216 
Q 1584 2216 1326 1975 
Q 1069 1734 1069 1313 
Q 1069 891 1326 650 
Q 1584 409 2034 409 
Q 2484 409 2743 651 
Q 3003 894 3003 1313 
Q 3003 1734 2745 1975 
Q 2488 2216 2034 2216 
z
M 1403 2484 
Q 997 2584 770 2862 
Q 544 3141 544 3541 
Q 544 4100 942 4425 
Q 1341 4750 2034 4750 
Q 2731 4750 3128 4425 
Q 3525 4100 3525 3541 
Q 3525 3141 3298 2862 
Q 3072 2584 2669 2484 
Q 3125 2378 3379 2068 
Q 3634 1759 3634 1313 
Q 3634 634 3220 271 
Q 2806 -91 2034 -91 
Q 1263 -91 848 271 
Q 434 634 434 1313 
Q 434 1759 690 2068 
Q 947 2378 1403 2484 
z
M 1172 3481 
Q 1172 3119 1398 2916 
Q 1625 2713 2034 2713 
Q 2441 2713 2670 2916 
Q 2900 3119 2900 3481 
Q 2900 3844 2670 4047 
Q 2441 4250 2034 4250 
Q 1625 4250 1398 4047 
Q 1172 3844 1172 3481 
z
" transform="scale(0.015625)"/>
       </defs>
       <use xlink:href="#DejaVuSans-30"/>
       <use xlink:href="#DejaVuSans-2e" transform="translate(63.623047 0)"/>
       <use xlink:href="#DejaVuSans-38" transform="translate(95.410156 0)"/>
      </g>
     </g>
    </g>
    <g id="ytick_6">
     <g id="line2d_27">
      <path d="M 51.563125 24.154432 
L 704.268125 24.154432 
" clip-path="url(#p4b48c61aa9)" style="fill: none; stroke-dasharray: 2.96,1.28; stroke-dashoffset: 0; stroke: #b0b0b0; stroke-opacity: 0.6; stroke-width: 0.8"/>
     </g>
     <g id="line2d_28">
      <g>
       <use xlink:href="#m32c7a44f7b" x="51.563125" y="24.154432" style="stroke: #000000; stroke-width: 0.8"/>
      </g>
     </g>
     <g id="text_6">
      <!-- 1.0 -->
      <g transform="translate(28.66 27.953651) scale(0.1 -0.1)">
       <defs>
        <path id="DejaVuSans-31" d="M 794 531 
L 1825 531 
L 1825 4091 
L 703 3866 
L 703 4441 
L 1819 4666 
L 2450 4666 
L 2450 531 
L 3481 531 
L 3481 0 
L 794 0 
L 794 531 
z
" transform="scale(0.015625)"/>
       </defs>
       <use xlink:href="#DejaVuSans-31"/>
       <use xlink:href="#DejaVuSans-2e" transform="translate(63.623047 0)"/>
       <use xlink:href="#DejaVuSans-30" transform="translate(95.410156 0)"/>
      </g>
     </g>
    </g>
    <g id="text_7">
     <!-- Population $\langle n_i\rangle$ -->
     <g transform="translate(20.88 258.94875) rotate(-90) scale(0.18 -0.18)">
      <defs>
       <path id="DejaVuSans-50" d="M 1259 4147 
L 1259 2394 
L 2053 2394 
Q 2494 2394 2734 2622 
Q 2975 2850 2975 3272 
Q 2975 3691 2734 3919 
Q 2494 4147 2053 4147 
L 1259 4147 
z
M 628 4666 
L 2053 4666 
Q 2838 4666 3239 4311 
Q 3641 3956 3641 3272 
Q 3641 2581 3239 2228 
Q 2838 1875 2053 1875 
L 1259 1875 
L 1259 0 
L 628 0 
L 628 4666 
z
" transform="scale(0.015625)"/>
       <path id="DejaVuSans-6f" d="M 1959 3097 
Q 1497 3097 1228 2736 
Q 959 2375 959 1747 
Q 959 1119 1226 758 
Q 1494 397 1959 397 
Q 2419 397 2687 759 
Q 2956 1122 2956 1747 
Q 2956 2369 2687 2733 
Q 2419 3097 1959 3097 
z
M 1959 3584 
Q 2709 3584 3137 3096 
Q 3566 2609 3566 1747 
Q 3566 888 3137 398 
Q 2709 -91 1959 -91 
Q 1206 -91 779 398 
Q 353 888 353 1747 
Q 353 2609 779 3096 
Q 1206 3584 1959 3584 
z
" transform="scale(0.015625)"/>
       <path id="DejaVuSans-70" d="M 1159 525 
L 1159 -1331 
L 581 -1331 
L 581 3500 
L 1159 3500 
L 1159 2969 
Q 1341 3281 1617 3432 
Q 1894 3584 2278 3584 
Q 2916 3584 3314 3078 
Q 3713 2572 3713 1747 
Q 3713 922 3314 415 
Q 2916 -91 2278 -91 
Q 1894 -91 1617 61 
Q 1341 213 1159 525 
z
M 3116 1747 
Q 3116 2381 2855 2742 
Q 2594 3103 2138 3103 
Q 1681 3103 1420 2742 
Q 1159 2381 1159 1747 
Q 1159 1113 1420 752 
Q 1681 391 2138 391 
Q 2594 391 2855 752 
Q 3116 1113 3116 1747 
z
" transform="scale(0.015625)"/>
       <path id="DejaVuSans-75" d="M 544 1381 
L 544 3500 
L 1119 3500 
L 1119 1403 
Q 1119 906 1312 657 
Q 1506 409 1894 409 
Q 2359 409 2629 706 
Q 2900 1003 2900 1516 
L 2900 3500 
L 3475 3500 
L 3475 0 
L 2900 0 
L 2900 538 
Q 2691 219 2414 64 
Q 2138 -91 1772 -91 
Q 1169 -91 856 284 
Q 544 659 544 1381 
z
M 1991 3584 
L 1991 3584 
z
" transform="scale(0.015625)"/>
       <path id="DejaVuSans-6c" d="M 603 4863 
L 1178 4863 
L 1178 0 
L 603 0 
L 603 4863 
z
" transform="scale(0.015625)"/>
       <path id="DejaVuSans-61" d="M 2194 1759 
Q 1497 1759 1228 1600 
Q 959 1441 959 1056 
Q 959 750 1161 570 
Q 1363 391 1709 391 
Q 2188 391 2477 730 
Q 2766 1069 2766 1631 
L 2766 1759 
L 2194 1759 
z
M 3341 1997 
L 3341 0 
L 2766 0 
L 2766 531 
Q 2569 213 2275 61 
Q 1981 -91 1556 -91 
Q 1019 -91 701 211 
Q 384 513 384 1019 
Q 384 1609 779 1909 
Q 1175 2209 1959 2209 
L 2766 2209 
L 2766 2266 
Q 2766 2663 2505 2880 
Q 2244 3097 1772 3097 
Q 1472 3097 1187 3025 
Q 903 2953 641 2809 
L 641 3341 
Q 956 3463 1253 3523 
Q 1550 3584 1831 3584 
Q 2591 3584 2966 3190 
Q 3341 2797 3341 1997 
z
" transform="scale(0.015625)"/>
       <path id="DejaVuSans-74" d="M 1172 4494 
L 1172 3500 
L 2356 3500 
L 2356 3053 
L 1172 3053 
L 1172 1153 
Q 1172 725 1289 603 
Q 1406 481 1766 481 
L 2356 481 
L 2356 0 
L 1766 0 
Q 1100 0 847 248 
Q 594 497 594 1153 
L 594 3053 
L 172 3053 
L 172 3500 
L 594 3500 
L 594 4494 
L 1172 4494 
z
" transform="scale(0.015625)"/>
       <path id="DejaVuSans-69" d="M 603 3500 
L 1178 3500 
L 1178 0 
L 603 0 
L 603 3500 
z
M 603 4863 
L 1178 4863 
L 1178 4134 
L 603 4134 
L 603 4863 
z
" transform="scale(0.015625)"/>
       <path id="DejaVuSans-6e" d="M 3513 2113 
L 3513 0 
L 2938 0 
L 2938 2094 
Q 2938 2591 2744 2837 
Q 2550 3084 2163 3084 
Q 1697 3084 1428 2787 
Q 1159 2491 1159 1978 
L 1159 0 
L 581 0 
L 581 3500 
L 1159 3500 
L 1159 2956 
Q 1366 3272 1645 3428 
Q 1925 3584 2291 3584 
Q 2894 3584 3203 3211 
Q 3513 2838 3513 2113 
z
" transform="scale(0.015625)"/>
       <path id="DejaVuSans-20" transform="scale(0.015625)"/>
       <path id="DejaVuSans-27e8" d="M 572 2006 
L 1453 4856 
L 1984 4856 
L 1103 2006 
L 1984 -844 
L 1453 -844 
L 572 2006 
z
" transform="scale(0.015625)"/>
       <path id="DejaVuSans-Oblique-6e" d="M 3566 2113 
L 3156 0 
L 2578 0 
L 2988 2091 
Q 3016 2238 3031 2350 
Q 3047 2463 3047 2528 
Q 3047 2791 2881 2937 
Q 2716 3084 2419 3084 
Q 1956 3084 1622 2776 
Q 1288 2469 1184 1941 
L 800 0 
L 225 0 
L 903 3500 
L 1478 3500 
L 1363 2950 
Q 1603 3253 1940 3418 
Q 2278 3584 2650 3584 
Q 3113 3584 3367 3334 
Q 3622 3084 3622 2631 
Q 3622 2519 3608 2391 
Q 3594 2263 3566 2113 
z
" transform="scale(0.015625)"/>
       <path id="DejaVuSans-Oblique-69" d="M 1172 4863 
L 1747 4863 
L 1606 4134 
L 1031 4134 
L 1172 4863 
z
M 909 3500 
L 1484 3500 
L 800 0 
L 225 0 
L 909 3500 
z
" transform="scale(0.015625)"/>
       <path id="DejaVuSans-27e9" d="M 1925 2006 
L 1044 -844 
L 513 -844 
L 1394 2006 
L 513 4856 
L 1044 4856 
L 1925 2006 
z
" transform="scale(0.015625)"/>
      </defs>
      <use xlink:href="#DejaVuSans-50" transform="translate(0 0.015625)"/>
      <use xlink:href="#DejaVuSans-6f" transform="translate(60.302734 0.015625)"/>
      <use xlink:href="#DejaVuSans-70" transform="translate(121.484375 0.015625)"/>
      <use xlink:href="#DejaVuSans-75" transform="translate(184.960938 0.015625)"/>
      <use xlink:href="#DejaVuSans-6c" transform="translate(248.339844 0.015625)"/>
      <use xlink:href="#DejaVuSans-61" transform="translate(276.123047 0.015625)"/>
      <use xlink:href="#DejaVuSans-74" transform="translate(337.402344 0.015625)"/>
      <use xlink:href="#DejaVuSans-69" transform="translate(376.611328 0.015625)"/>
      <use xlink:href="#DejaVuSans-6f" transform="translate(404.394531 0.015625)"/>
      <use xlink:href="#DejaVuSans-6e" transform="translate(465.576172 0.015625)"/>
      <use xlink:href="#DejaVuSans-20" transform="translate(528.955078 0.015625)"/>
      <use xlink:href="#DejaVuSans-27e8" transform="translate(560.742188 0.015625)"/>
      <use xlink:href="#DejaVuSans-Oblique-6e" transform="translate(599.755859 0.015625)"/>
      <use xlink:href="#DejaVuSans-Oblique-69" transform="translate(663.134766 -16.390625) scale(0.7)"/>
      <use xlink:href="#DejaVuSans-27e9" transform="translate(685.317383 0.015625)"/>
     </g>
    </g>
   </g>
   <g id="line2d_29">
    <path d="M 81.231534 24.154432 
L 87.116975 24.792244 
L 93.002415 24.370192 
L 98.887856 24.810796 
L 104.773296 25.538182 
L 110.658737 26.431418 
L 116.544177 29.21342 
L 122.429618 32.186612 
L 128.315058 37.810062 
L 134.200499 44.692656 
L 140.085939 54.013265 
L 145.97138 65.954009 
L 151.85682 79.829206 
L 157.742261 96.911735 
L 163.627701 115.690433 
L 169.513142 137.087961 
L 175.398582 160.045482 
L 181.284023 184.291301 
L 187.169463 209.515764 
L 193.054904 234.591095 
L 198.940344 259.402425 
L 204.825785 282.78186 
L 210.711225 304.335046 
L 216.596666 323.278276 
L 222.482106 339.025029 
L 228.367547 351.120528 
L 234.34947 362.133832 
L 240.331393 363.079747 
L 246.313316 361.993604 
L 252.295239 362.21527 
L 258.277162 361.314505 
L 264.259085 361.067474 
L 270.241009 361.0636 
L 276.222932 360.521281 
L 282.204855 360.95843 
L 288.186778 359.430893 
L 294.168701 359.396267 
L 300.150624 357.343324 
L 306.132547 357.569202 
L 312.114471 356.48294 
L 318.096394 357.20154 
L 324.078317 356.701575 
L 330.06024 356.385744 
L 336.042163 355.39565 
L 342.024086 354.093036 
L 348.006009 353.659235 
L 353.987932 353.158014 
L 359.969856 353.932505 
L 365.951779 353.983061 
L 371.933702 354.271726 
L 377.915625 353.517592 
L 383.801066 363.243068 
L 389.686506 363.243068 
L 395.571947 363.243068 
L 401.457387 363.243068 
L 407.342828 363.243068 
L 413.228268 363.243068 
L 419.113709 363.243068 
L 424.999149 363.243068 
L 430.88459 363.243068 
L 436.77003 363.243068 
L 442.655471 363.243068 
L 448.540911 363.243068 
L 454.426352 363.243068 
L 460.311792 363.243068 
L 466.197233 363.243068 
L 472.082673 363.243068 
L 477.968114 363.243068 
L 483.853554 363.243068 
L 489.738995 363.243068 
L 495.624435 363.243068 
L 501.509876 363.243068 
L 507.395316 363.243068 
L 513.280757 363.243068 
L 519.166197 363.243068 
L 525.051638 363.243068 
L 531.033561 363.243068 
L 537.015484 363.243068 
L 542.997407 363.243068 
L 548.97933 363.243068 
L 554.961253 363.243068 
L 560.943176 363.243068 
L 566.9251 363.243068 
L 572.907023 363.243068 
L 578.888946 363.243068 
L 584.870869 363.243068 
L 590.852792 363.243068 
L 596.834715 363.243068 
L 602.816638 363.243068 
L 608.798561 363.243068 
L 614.780485 363.243068 
L 620.762408 363.243068 
L 626.744331 363.243068 
L 632.726254 363.243068 
L 638.708177 363.243068 
L 644.6901 363.243068 
L 650.672023 363.243068 
L 656.653947 363.243068 
L 662.63587 363.243068 
L 668.617793 363.243068 
L 674.599716 363.243068 
" clip-path="url(#p4b48c61aa9)" style="fill: none; stroke: #1f77b4; stroke-width: 4; stroke-linecap: square"/>
   </g>
   <g id="line2d_30">
    <path d="M 81.231534 363.243068 
L 87.116975 361.009066 
L 93.002415 354.387154 
L 98.887856 343.588287 
L 104.773296 328.959565 
L 110.658737 311.020949 
L 116.544177 290.201175 
L 122.429618 267.381575 
L 128.315058 242.921524 
L 134.200499 217.840224 
L 140.085939 192.6463 
L 145.97138 167.884471 
L 151.85682 144.613529 
L 157.742261 122.481385 
L 163.627701 102.946674 
L 169.513142 85.248656 
L 175.398582 70.233153 
L 181.284023 57.883132 
L 187.169463 47.417827 
L 193.054904 40.103138 
L 198.940344 33.834743 
L 204.825785 30.174615 
L 210.711225 27.433664 
L 216.596666 25.727964 
L 222.482106 25.379515 
L 228.367547 24.451327 
L 234.34947 26.330976 
L 240.331393 31.348376 
L 246.313316 35.919073 
L 252.295239 37.354827 
L 258.277162 35.631008 
L 264.259085 33.613307 
L 270.241009 34.6274 
L 276.222932 40.93061 
L 282.204855 51.762831 
L 288.186778 64.932318 
L 294.168701 78.117226 
L 300.150624 90.985737 
L 306.132547 104.752624 
L 312.114471 121.399694 
L 318.096394 141.893814 
L 324.078317 165.824433 
L 330.06024 191.400639 
L 336.042163 217.1088 
L 342.024086 241.47693 
L 348.006009 264.389581 
L 353.987932 285.443762 
L 359.969856 304.878128 
L 365.951779 322.266648 
L 371.933702 337.215489 
L 377.915625 349.136475 
L 383.801066 363.243068 
L 389.686506 363.243068 
L 395.571947 363.243068 
L 401.457387 363.243068 
L 407.342828 363.243068 
L 413.228268 363.243068 
L 419.113709 363.243068 
L 424.999149 363.243068 
L 430.88459 363.243068 
L 436.77003 363.243068 
L 442.655471 363.243068 
L 448.540911 363.243068 
L 454.426352 363.243068 
L 460.311792 363.243068 
L 466.197233 363.243068 
L 472.082673 363.243068 
L 477.968114 363.243068 
L 483.853554 363.243068 
L 489.738995 363.243068 
L 495.624435 363.243068 
L 501.509876 363.243068 
L 507.395316 363.243068 
L 513.280757 363.243068 
L 519.166197 363.243068 
L 525.051638 363.243068 
L 531.033561 363.243068 
L 537.015484 363.243068 
L 542.997407 363.243068 
L 548.97933 363.243068 
L 554.961253 363.243068 
L 560.943176 363.243068 
L 566.9251 363.243068 
L 572.907023 363.243068 
L 578.888946 363.243068 
L 584.870869 363.243068 
L 590.852792 363.243068 
L 596.834715 363.243068 
L 602.816638 363.243068 
L 608.798561 363.243068 
L 614.780485 363.243068 
L 620.762408 363.243068 
L 626.744331 363.243068 
L 632.726254 363.243068 
L 638.708177 363.243068 
L 644.6901 363.243068 
L 650.672023 363.243068 
L 656.653947 363.243068 
L 662.63587 363.243068 
L 668.617793 363.243068 
L 674.599716 363.243068 
" clip-path="url(#p4b48c61aa9)" style="fill: none; stroke: #ff7f0e; stroke-width: 4; stroke-linecap: square"/>
   </g>
   <g id="line2d_31">
    <path d="M 81.231534 363.243068 
L 87.116975 362.606045 
L 93.002415 363.087041 
L 98.887856 362.857906 
L 104.773296 362.780849 
L 110.658737 363.111873 
L 116.544177 362.600214 
L 122.429618 363.127208 
L 128.315058 362.682543 
L 134.200499 362.921328 
L 140.085939 362.883716 
L 145.97138 362.710011 
L 151.85682 362.987727 
L 157.742261 362.667953 
L 163.627701 362.912939 
L 169.513142 362.764384 
L 175.398582 362.778469 
L 181.284023 362.854593 
L 187.169463 362.71523 
L 193.054904 362.84947 
L 198.940344 362.746306 
L 204.825785 362.789257 
L 210.711225 362.795918 
L 216.596666 362.747093 
L 222.482106 362.808139 
L 228.367547 362.746611 
L 234.34947 360.934472 
L 240.331393 354.146471 
L 246.313316 343.405968 
L 252.295239 329.33891 
L 258.277162 312.301481 
L 264.259085 292.576343 
L 270.241009 270.361783 
L 276.222932 245.935888 
L 282.204855 220.197584 
L 288.186778 194.609543 
L 294.168701 170.771911 
L 300.150624 149.710974 
L 306.132547 131.141962 
L 312.114471 113.810874 
L 318.096394 96.697615 
L 324.078317 80.020182 
L 330.06024 65.534827 
L 336.042163 55.474763 
L 342.024086 50.828773 
L 348.006009 50.38366 
L 353.987932 51.201311 
L 359.969856 50.467801 
L 365.951779 47.338547 
L 371.933702 43.458262 
L 377.915625 41.789463 
L 383.801066 24.794211 
L 389.686506 24.386394 
L 395.571947 24.849358 
L 401.457387 25.566866 
L 407.342828 26.460869 
L 413.228268 29.270765 
L 419.113709 32.276564 
L 424.999149 37.892668 
L 430.88459 44.745544 
L 436.77003 54.088025 
L 442.655471 66.020225 
L 448.540911 79.867413 
L 454.426352 96.911596 
L 460.311792 115.649137 
L 466.197233 136.98688 
L 472.082673 159.871233 
L 477.968114 184.088495 
L 483.853554 209.227056 
L 489.738995 234.166387 
L 495.624435 258.895563 
L 501.509876 282.264565 
L 507.395316 303.734024 
L 513.280757 322.503368 
L 519.166197 338.175081 
L 525.051638 350.315456 
L 531.033561 362.135945 
L 537.015484 363.071647 
L 542.997407 362.032162 
L 548.97933 362.217575 
L 554.961253 361.437014 
L 560.943176 361.147249 
L 566.9251 361.260968 
L 572.907023 360.62408 
L 578.888946 361.123863 
L 584.870869 359.552126 
L 590.852792 359.595908 
L 596.834715 357.693348 
L 602.816638 357.969497 
L 608.798561 357.055352 
L 614.780485 357.59315 
L 620.762408 357.177704 
L 626.744331 356.628607 
L 632.726254 355.833956 
L 638.708177 354.49282 
L 644.6901 354.299687 
L 650.672023 353.863023 
L 656.653947 354.768233 
L 662.63587 354.88142 
L 668.617793 355.076378 
L 674.599716 354.157998 
" clip-path="url(#p4b48c61aa9)" style="fill: none; stroke: #2ca02c; stroke-width: 4; stroke-linecap: square"/>
   </g>
   <g id="line2d_32">
    <path d="M 81.231534 363.243068 
L 87.116975 363.243068 
L 93.002415 363.243068 
L 98.887856 363.243068 
L 104.773296 363.243068 
L 110.658737 363.243068 
L 116.544177 363.243068 
L 122.429618 363.243068 
L 128.315058 363.243068 
L 134.200499 363.243068 
L 140.085939 363.243068 
L 145.97138 363.243068 
L 151.85682 363.243068 
L 157.742261 363.243068 
L 163.627701 363.243068 
L 169.513142 363.243068 
L 175.398582 363.243068 
L 181.284023 363.243068 
L 187.169463 363.243068 
L 193.054904 363.243068 
L 198.940344 363.243068 
L 204.825785 363.243068 
L 210.711225 363.243068 
L 216.596666 363.243068 
L 222.482106 363.243068 
L 228.367547 363.243068 
L 234.34947 363.243068 
L 240.331393 363.243068 
L 246.313316 363.243068 
L 252.295239 363.243068 
L 258.277162 363.243068 
L 264.259085 363.243068 
L 270.241009 363.243068 
L 276.222932 363.243068 
L 282.204855 363.243068 
L 288.186778 363.243068 
L 294.168701 363.243068 
L 300.150624 363.243068 
L 306.132547 363.243068 
L 312.114471 363.243068 
L 318.096394 363.243068 
L 324.078317 363.243068 
L 330.06024 363.243068 
L 336.042163 363.243068 
L 342.024086 363.243068 
L 348.006009 363.243068 
L 353.987932 363.243068 
L 359.969856 363.243068 
L 365.951779 363.243068 
L 371.933702 363.243068 
L 377.915625 363.243068 
L 383.801066 361.009067 
L 389.686506 354.387309 
L 395.571947 343.589133 
L 401.457387 328.961624 
L 407.342828 311.023361 
L 413.228268 290.204724 
L 419.113709 267.388906 
L 424.999149 242.933331 
L 430.88459 217.8575 
L 436.77003 192.66511 
L 442.655471 167.917191 
L 448.540911 144.659218 
L 454.426352 122.539618 
L 460.311792 103.021348 
L 466.197233 85.340293 
L 472.082673 70.366753 
L 477.968114 58.034621 
L 483.853554 47.606086 
L 489.738995 40.330902 
L 495.624435 34.110226 
L 501.509876 30.511985 
L 507.395316 27.797211 
L 513.280757 26.171099 
L 519.166197 25.874448 
L 525.051638 25.016471 
L 531.033561 26.330977 
L 537.015484 31.348553 
L 542.997407 35.919717 
L 548.97933 37.356895 
L 554.961253 35.623275 
L 560.943176 33.570288 
L 566.9251 34.52967 
L 572.907023 40.774737 
L 578.888946 51.578209 
L 584.870869 64.751006 
L 590.852792 77.957752 
L 596.834715 90.835102 
L 602.816638 104.579107 
L 608.798561 121.175012 
L 614.780485 141.607295 
L 620.762408 165.504468 
L 626.744331 191.0842 
L 632.726254 216.81835 
L 638.708177 241.243285 
L 644.6901 264.166667 
L 650.672023 285.25675 
L 656.653947 304.643556 
L 662.63587 322.045901 
L 668.617793 336.94422 
L 674.599716 348.914591 
" clip-path="url(#p4b48c61aa9)" style="fill: none; stroke: #d62728; stroke-width: 4; stroke-linecap: square"/>
   </g>
   <g id="line2d_33">
    <path d="M 81.231534 363.243068 
L 87.116975 363.243068 
L 93.002415 363.243068 
L 98.887856 363.243068 
L 104.773296 363.243068 
L 110.658737 363.243068 
L 116.544177 363.243068 
L 122.429618 363.243068 
L 128.315058 363.243068 
L 134.200499 363.243068 
L 140.085939 363.243068 
L 145.97138 363.243068 
L 151.85682 363.243068 
L 157.742261 363.243068 
L 163.627701 363.243068 
L 169.513142 363.243068 
L 175.398582 363.243068 
L 181.284023 363.243068 
L 187.169463 363.243068 
L 193.054904 363.243068 
L 198.940344 363.243068 
L 204.825785 363.243068 
L 210.711225 363.243068 
L 216.596666 363.243068 
L 222.482106 363.243068 
L 228.367547 363.243068 
L 234.34947 363.243068 
L 240.331393 363.243068 
L 246.313316 363.243068 
L 252.295239 363.243068 
L 258.277162 363.243068 
L 264.259085 363.243068 
L 270.241009 363.243068 
L 276.222932 363.243068 
L 282.204855 363.243068 
L 288.186778 363.243068 
L 294.168701 363.243068 
L 300.150624 363.243068 
L 306.132547 363.243068 
L 312.114471 363.243068 
L 318.096394 363.243068 
L 324.078317 363.243068 
L 330.06024 363.243068 
L 336.042163 363.243068 
L 342.024086 363.243068 
L 348.006009 363.243068 
L 353.987932 363.243068 
L 359.969856 363.243068 
L 365.951779 363.243068 
L 371.933702 363.243068 
L 377.915625 363.243068 
L 383.801066 362.606042 
L 389.686506 363.087036 
L 395.571947 362.857902 
L 401.457387 362.780827 
L 407.342828 363.111876 
L 413.228268 362.60016 
L 419.113709 363.127226 
L 424.999149 362.682467 
L 430.88459 362.921327 
L 436.77003 362.883632 
L 442.655471 362.709933 
L 448.540911 362.987749 
L 454.426352 362.667677 
L 460.311792 362.913143 
L 466.197233 362.763887 
L 472.082673 362.778761 
L 477.968114 362.854175 
L 483.853554 362.715146 
L 489.738995 362.849665 
L 495.624435 362.745409 
L 501.509876 362.790336 
L 507.395316 362.794477 
L 513.280757 362.74823 
L 519.166197 362.807536 
L 525.051638 362.746208 
L 531.033561 360.934472 
L 537.015484 354.146471 
L 542.997407 343.405977 
L 548.97933 329.338996 
L 554.961253 312.301956 
L 560.943176 292.577982 
L 566.9251 270.364857 
L 572.907023 245.936472 
L 578.888946 220.186904 
L 584.870869 194.578145 
L 590.852792 170.71697 
L 596.834715 149.643501 
L 602.816638 131.081545 
L 608.798561 113.767486 
L 614.780485 96.656329 
L 620.762408 79.939506 
L 626.744331 65.364167 
L 632.726254 55.194614 
L 638.708177 50.47116 
L 644.6901 50.016302 
L 650.672023 50.879741 
L 656.653947 50.186292 
L 662.63587 47.019417 
L 668.617793 42.988765 
L 674.599716 41.105025 
" clip-path="url(#p4b48c61aa9)" style="fill: none; stroke: #9467bd; stroke-width: 4; stroke-linecap: square"/>
   </g>
   <g id="patch_3">
    <path d="M 51.563125 380.1975 
L 51.563125 7.2 
" style="fill: none; stroke: #000000; stroke-width: 0.8; stroke-linejoin: miter; stroke-linecap: square"/>
   </g>
   <g id="patch_4">
    <path d="M 704.268125 380.1975 
L 704.268125 7.2 
" style="fill: none; stroke: #000000; stroke-width: 0.8; stroke-linejoin: miter; stroke-linecap: square"/>
   </g>
   <g id="patch_5">
    <path d="M 51.563125 380.1975 
L 704.268125 380.1975 
" style="fill: none; stroke: #000000; stroke-width: 0.8; stroke-linejoin: miter; stroke-linecap: square"/>
   </g>
   <g id="patch_6">
    <path d="M 51.563125 7.2 
L 704.268125 7.2 
" style="fill: none; stroke: #000000; stroke-width: 0.8; stroke-linejoin: miter; stroke-linecap: square"/>
   </g>
   <g id="legend_1">
    <g id="patch_7">
     <path d="M 61.363125 247.172187 
L 155.3075 247.172187 
Q 158.1075 247.172187 158.1075 244.372187 
L 158.1075 143.025312 
Q 158.1075 140.225312 155.3075 140.225312 
L 61.363125 140.225312 
Q 58.563125 140.225312 58.563125 143.025312 
L 58.563125 244.372187 
Q 58.563125 247.172187 61.363125 247.172187 
z
" style="fill: #ffffff; opacity: 0.8; stroke: #cccccc; stroke-linejoin: miter"/>
    </g>
    <g id="line2d_34">
     <path d="M 64.163125 151.563125 
L 78.163125 151.563125 
L 92.163125 151.563125 
" style="fill: none; stroke: #1f77b4; stroke-width: 4; stroke-linecap: square"/>
    </g>
    <g id="text_8">
     <!-- Site 1 -->
     <g transform="translate(103.363125 156.463125) scale(0.14 -0.14)">
      <defs>
       <path id="DejaVuSans-53" d="M 3425 4513 
L 3425 3897 
Q 3066 4069 2747 4153 
Q 2428 4238 2131 4238 
Q 1616 4238 1336 4038 
Q 1056 3838 1056 3469 
Q 1056 3159 1242 3001 
Q 1428 2844 1947 2747 
L 2328 2669 
Q 3034 2534 3370 2195 
Q 3706 1856 3706 1288 
Q 3706 609 3251 259 
Q 2797 -91 1919 -91 
Q 1588 -91 1214 -16 
Q 841 59 441 206 
L 441 856 
Q 825 641 1194 531 
Q 1563 422 1919 422 
Q 2459 422 2753 634 
Q 3047 847 3047 1241 
Q 3047 1584 2836 1778 
Q 2625 1972 2144 2069 
L 1759 2144 
Q 1053 2284 737 2584 
Q 422 2884 422 3419 
Q 422 4038 858 4394 
Q 1294 4750 2059 4750 
Q 2388 4750 2728 4690 
Q 3069 4631 3425 4513 
z
" transform="scale(0.015625)"/>
       <path id="DejaVuSans-65" d="M 3597 1894 
L 3597 1613 
L 953 1613 
Q 991 1019 1311 708 
Q 1631 397 2203 397 
Q 2534 397 2845 478 
Q 3156 559 3463 722 
L 3463 178 
Q 3153 47 2828 -22 
Q 2503 -91 2169 -91 
Q 1331 -91 842 396 
Q 353 884 353 1716 
Q 353 2575 817 3079 
Q 1281 3584 2069 3584 
Q 2775 3584 3186 3129 
Q 3597 2675 3597 1894 
z
M 3022 2063 
Q 3016 2534 2758 2815 
Q 2500 3097 2075 3097 
Q 1594 3097 1305 2825 
Q 1016 2553 972 2059 
L 3022 2063 
z
" transform="scale(0.015625)"/>
      </defs>
      <use xlink:href="#DejaVuSans-53"/>
      <use xlink:href="#DejaVuSans-69" transform="translate(63.476562 0)"/>
      <use xlink:href="#DejaVuSans-74" transform="translate(91.259766 0)"/>
      <use xlink:href="#DejaVuSans-65" transform="translate(130.46875 0)"/>
      <use xlink:href="#DejaVuSans-20" transform="translate(191.992188 0)"/>
      <use xlink:href="#DejaVuSans-31" transform="translate(223.779297 0)"/>
     </g>
    </g>
    <g id="line2d_35">
     <path d="M 64.163125 172.1125 
L 78.163125 172.1125 
L 92.163125 172.1125 
" style="fill: none; stroke: #ff7f0e; stroke-width: 4; stroke-linecap: square"/>
    </g>
    <g id="text_9">
     <!-- Site 26 -->
     <g transform="translate(103.363125 177.0125) scale(0.14 -0.14)">
      <use xlink:href="#DejaVuSans-53"/>
      <use xlink:href="#DejaVuSans-69" transform="translate(63.476562 0)"/>
      <use xlink:href="#DejaVuSans-74" transform="translate(91.259766 0)"/>
      <use xlink:href="#DejaVuSans-65" transform="translate(130.46875 0)"/>
      <use xlink:href="#DejaVuSans-20" transform="translate(191.992188 0)"/>
      <use xlink:href="#DejaVuSans-32" transform="translate(223.779297 0)"/>
      <use xlink:href="#DejaVuSans-36" transform="translate(287.402344 0)"/>
     </g>
    </g>
    <g id="line2d_36">
     <path d="M 64.163125 192.661875 
L 78.163125 192.661875 
L 92.163125 192.661875 
" style="fill: none; stroke: #2ca02c; stroke-width: 4; stroke-linecap: square"/>
    </g>
    <g id="text_10">
     <!-- Site 6 -->
     <g transform="translate(103.363125 197.561875) scale(0.14 -0.14)">
      <use xlink:href="#DejaVuSans-53"/>
      <use xlink:href="#DejaVuSans-69" transform="translate(63.476562 0)"/>
      <use xlink:href="#DejaVuSans-74" transform="translate(91.259766 0)"/>
      <use xlink:href="#DejaVuSans-65" transform="translate(130.46875 0)"/>
      <use xlink:href="#DejaVuSans-20" transform="translate(191.992188 0)"/>
      <use xlink:href="#DejaVuSans-36" transform="translate(223.779297 0)"/>
     </g>
    </g>
    <g id="line2d_37">
     <path d="M 64.163125 213.21125 
L 78.163125 213.21125 
L 92.163125 213.21125 
" style="fill: none; stroke: #d62728; stroke-width: 4; stroke-linecap: square"/>
    </g>
    <g id="text_11">
     <!-- Site 31 -->
     <g transform="translate(103.363125 218.11125) scale(0.14 -0.14)">
      <defs>
       <path id="DejaVuSans-33" d="M 2597 2516 
Q 3050 2419 3304 2112 
Q 3559 1806 3559 1356 
Q 3559 666 3084 287 
Q 2609 -91 1734 -91 
Q 1441 -91 1130 -33 
Q 819 25 488 141 
L 488 750 
Q 750 597 1062 519 
Q 1375 441 1716 441 
Q 2309 441 2620 675 
Q 2931 909 2931 1356 
Q 2931 1769 2642 2001 
Q 2353 2234 1838 2234 
L 1294 2234 
L 1294 2753 
L 1863 2753 
Q 2328 2753 2575 2939 
Q 2822 3125 2822 3475 
Q 2822 3834 2567 4026 
Q 2313 4219 1838 4219 
Q 1578 4219 1281 4162 
Q 984 4106 628 3988 
L 628 4550 
Q 988 4650 1302 4700 
Q 1616 4750 1894 4750 
Q 2613 4750 3031 4423 
Q 3450 4097 3450 3541 
Q 3450 3153 3228 2886 
Q 3006 2619 2597 2516 
z
" transform="scale(0.015625)"/>
      </defs>
      <use xlink:href="#DejaVuSans-53"/>
      <use xlink:href="#DejaVuSans-69" transform="translate(63.476562 0)"/>
      <use xlink:href="#DejaVuSans-74" transform="translate(91.259766 0)"/>
      <use xlink:href="#DejaVuSans-65" transform="translate(130.46875 0)"/>
      <use xlink:href="#DejaVuSans-20" transform="translate(191.992188 0)"/>
      <use xlink:href="#DejaVuSans-33" transform="translate(223.779297 0)"/>
      <use xlink:href="#DejaVuSans-31" transform="translate(287.402344 0)"/>
     </g>
    </g>
    <g id="line2d_38">
     <path d="M 64.163125 233.760625 
L 78.163125 233.760625 
L 92.163125 233.760625 
" style="fill: none; stroke: #9467bd; stroke-width: 4; stroke-linecap: square"/>
    </g>
    <g id="text_12">
     <!-- Site 11 -->
     <g transform="translate(103.363125 238.660625) scale(0.14 -0.14)">
      <use xlink:href="#DejaVuSans-53"/>
      <use xlink:href="#DejaVuSans-69" transform="translate(63.476562 0)"/>
      <use xlink:href="#DejaVuSans-74" transform="translate(91.259766 0)"/>
      <use xlink:href="#DejaVuSans-65" transform="translate(130.46875 0)"/>
      <use xlink:href="#DejaVuSans-20" transform="translate(191.992188 0)"/>
      <use xlink:href="#DejaVuSans-31" transform="translate(223.779297 0)"/>
      <use xlink:href="#DejaVuSans-31" transform="translate(287.402344 0)"/>
     </g>
    </g>
   </g>
  </g>
  <g id="axes_2">
   <g id="patch_8">
    <path d="M 51.563125 518.83 
L 704.268125 518.83 
L 704.268125 394.4975 
L 51.563125 394.4975 
z
" style="fill: #ffffff"/>
   </g>
   <g id="patch_9">
    <path d="M 81.231534 518.83 
L 228.367547 518.83 
L 228.367547 394.4975 
L 81.231534 394.4975 
z
" clip-path="url(#pcf8fc1a37f)" style="fill: #ff7f0e; opacity: 0.3; stroke: #ff7f0e; stroke-linejoin: miter"/>
   </g>
   <g id="patch_10">
    <path d="M 228.367547 518.83 
L 377.915625 518.83 
L 377.915625 394.4975 
L 228.367547 394.4975 
z
" clip-path="url(#pcf8fc1a37f)" style="fill: #1f77b4; opacity: 0.3; stroke: #1f77b4; stroke-linejoin: miter"/>
   </g>
   <g id="patch_11">
    <path d="M 377.915625 518.83 
L 525.051638 518.83 
L 525.051638 394.4975 
L 377.915625 394.4975 
z
" clip-path="url(#pcf8fc1a37f)" style="fill: #ff7f0e; opacity: 0.3; stroke: #ff7f0e; stroke-linejoin: miter"/>
   </g>
   <g id="patch_12">
    <path d="M 525.051638 518.83 
L 674.599716 518.83 
L 674.599716 394.4975 
L 525.051638 394.4975 
z
" clip-path="url(#pcf8fc1a37f)" style="fill: #1f77b4; opacity: 0.3; stroke: #1f77b4; stroke-linejoin: miter"/>
   </g>
   <g id="matplotlib.axis_3">
    <g id="xtick_9">
     <g id="line2d_39">
      <path d="M 81.231534 518.83 
L 81.231534 394.4975 
" clip-path="url(#pcf8fc1a37f)" style="fill: none; stroke-dasharray: 2.96,1.28; stroke-dashoffset: 0; stroke: #b0b0b0; stroke-opacity: 0.4; stroke-width: 0.8"/>
     </g>
     <g id="line2d_40">
      <g>
       <use xlink:href="#m4546218ee2" x="81.231534" y="518.83" style="stroke: #000000; stroke-width: 0.8"/>
      </g>
     </g>
     <g id="text_13">
      <!-- 0.00 -->
      <g transform="translate(70.098722 533.428437) scale(0.1 -0.1)">
       <use xlink:href="#DejaVuSans-30"/>
       <use xlink:href="#DejaVuSans-2e" transform="translate(63.623047 0)"/>
       <use xlink:href="#DejaVuSans-30" transform="translate(95.410156 0)"/>
       <use xlink:href="#DejaVuSans-30" transform="translate(159.033203 0)"/>
      </g>
     </g>
    </g>
    <g id="xtick_10">
     <g id="line2d_41">
      <path d="M 161.633727 518.83 
L 161.633727 394.4975 
" clip-path="url(#pcf8fc1a37f)" style="fill: none; stroke-dasharray: 2.96,1.28; stroke-dashoffset: 0; stroke: #b0b0b0; stroke-opacity: 0.4; stroke-width: 0.8"/>
     </g>
     <g id="line2d_42">
      <g>
       <use xlink:href="#m4546218ee2" x="161.633727" y="518.83" style="stroke: #000000; stroke-width: 0.8"/>
      </g>
     </g>
     <g id="text_14">
      <!-- 0.25 -->
      <g transform="translate(150.500914 533.428437) scale(0.1 -0.1)">
       <defs>
        <path id="DejaVuSans-35" d="M 691 4666 
L 3169 4666 
L 3169 4134 
L 1269 4134 
L 1269 2991 
Q 1406 3038 1543 3061 
Q 1681 3084 1819 3084 
Q 2600 3084 3056 2656 
Q 3513 2228 3513 1497 
Q 3513 744 3044 326 
Q 2575 -91 1722 -91 
Q 1428 -91 1123 -41 
Q 819 9 494 109 
L 494 744 
Q 775 591 1075 516 
Q 1375 441 1709 441 
Q 2250 441 2565 725 
Q 2881 1009 2881 1497 
Q 2881 1984 2565 2268 
Q 2250 2553 1709 2553 
Q 1456 2553 1204 2497 
Q 953 2441 691 2322 
L 691 4666 
z
" transform="scale(0.015625)"/>
       </defs>
       <use xlink:href="#DejaVuSans-30"/>
       <use xlink:href="#DejaVuSans-2e" transform="translate(63.623047 0)"/>
       <use xlink:href="#DejaVuSans-32" transform="translate(95.410156 0)"/>
       <use xlink:href="#DejaVuSans-35" transform="translate(159.033203 0)"/>
      </g>
     </g>
    </g>
    <g id="xtick_11">
     <g id="line2d_43">
      <path d="M 242.035919 518.83 
L 242.035919 394.4975 
" clip-path="url(#pcf8fc1a37f)" style="fill: none; stroke-dasharray: 2.96,1.28; stroke-dashoffset: 0; stroke: #b0b0b0; stroke-opacity: 0.4; stroke-width: 0.8"/>
     </g>
     <g id="line2d_44">
      <g>
       <use xlink:href="#m4546218ee2" x="242.035919" y="518.83" style="stroke: #000000; stroke-width: 0.8"/>
      </g>
     </g>
     <g id="text_15">
      <!-- 0.50 -->
      <g transform="translate(230.903107 533.428437) scale(0.1 -0.1)">
       <use xlink:href="#DejaVuSans-30"/>
       <use xlink:href="#DejaVuSans-2e" transform="translate(63.623047 0)"/>
       <use xlink:href="#DejaVuSans-35" transform="translate(95.410156 0)"/>
       <use xlink:href="#DejaVuSans-30" transform="translate(159.033203 0)"/>
      </g>
     </g>
    </g>
    <g id="xtick_12">
     <g id="line2d_45">
      <path d="M 322.438112 518.83 
L 322.438112 394.4975 
" clip-path="url(#pcf8fc1a37f)" style="fill: none; stroke-dasharray: 2.96,1.28; stroke-dashoffset: 0; stroke: #b0b0b0; stroke-opacity: 0.4; stroke-width: 0.8"/>
     </g>
     <g id="line2d_46">
      <g>
       <use xlink:href="#m4546218ee2" x="322.438112" y="518.83" style="stroke: #000000; stroke-width: 0.8"/>
      </g>
     </g>
     <g id="text_16">
      <!-- 0.75 -->
      <g transform="translate(311.3053 533.428437) scale(0.1 -0.1)">
       <defs>
        <path id="DejaVuSans-37" d="M 525 4666 
L 3525 4666 
L 3525 4397 
L 1831 0 
L 1172 0 
L 2766 4134 
L 525 4134 
L 525 4666 
z
" transform="scale(0.015625)"/>
       </defs>
       <use xlink:href="#DejaVuSans-30"/>
       <use xlink:href="#DejaVuSans-2e" transform="translate(63.623047 0)"/>
       <use xlink:href="#DejaVuSans-37" transform="translate(95.410156 0)"/>
       <use xlink:href="#DejaVuSans-35" transform="translate(159.033203 0)"/>
      </g>
     </g>
    </g>
    <g id="xtick_13">
     <g id="line2d_47">
      <path d="M 402.840305 518.83 
L 402.840305 394.4975 
" clip-path="url(#pcf8fc1a37f)" style="fill: none; stroke-dasharray: 2.96,1.28; stroke-dashoffset: 0; stroke: #b0b0b0; stroke-opacity: 0.4; stroke-width: 0.8"/>
     </g>
     <g id="line2d_48">
      <g>
       <use xlink:href="#m4546218ee2" x="402.840305" y="518.83" style="stroke: #000000; stroke-width: 0.8"/>
      </g>
     </g>
     <g id="text_17">
      <!-- 1.00 -->
      <g transform="translate(391.707492 533.428437) scale(0.1 -0.1)">
       <use xlink:href="#DejaVuSans-31"/>
       <use xlink:href="#DejaVuSans-2e" transform="translate(63.623047 0)"/>
       <use xlink:href="#DejaVuSans-30" transform="translate(95.410156 0)"/>
       <use xlink:href="#DejaVuSans-30" transform="translate(159.033203 0)"/>
      </g>
     </g>
    </g>
    <g id="xtick_14">
     <g id="line2d_49">
      <path d="M 483.242497 518.83 
L 483.242497 394.4975 
" clip-path="url(#pcf8fc1a37f)" style="fill: none; stroke-dasharray: 2.96,1.28; stroke-dashoffset: 0; stroke: #b0b0b0; stroke-opacity: 0.4; stroke-width: 0.8"/>
     </g>
     <g id="line2d_50">
      <g>
       <use xlink:href="#m4546218ee2" x="483.242497" y="518.83" style="stroke: #000000; stroke-width: 0.8"/>
      </g>
     </g>
     <g id="text_18">
      <!-- 1.25 -->
      <g transform="translate(472.109685 533.428437) scale(0.1 -0.1)">
       <use xlink:href="#DejaVuSans-31"/>
       <use xlink:href="#DejaVuSans-2e" transform="translate(63.623047 0)"/>
       <use xlink:href="#DejaVuSans-32" transform="translate(95.410156 0)"/>
       <use xlink:href="#DejaVuSans-35" transform="translate(159.033203 0)"/>
      </g>
     </g>
    </g>
    <g id="xtick_15">
     <g id="line2d_51">
      <path d="M 563.64469 518.83 
L 563.64469 394.4975 
" clip-path="url(#pcf8fc1a37f)" style="fill: none; stroke-dasharray: 2.96,1.28; stroke-dashoffset: 0; stroke: #b0b0b0; stroke-opacity: 0.4; stroke-width: 0.8"/>
     </g>
     <g id="line2d_52">
      <g>
       <use xlink:href="#m4546218ee2" x="563.64469" y="518.83" style="stroke: #000000; stroke-width: 0.8"/>
      </g>
     </g>
     <g id="text_19">
      <!-- 1.50 -->
      <g transform="translate(552.511878 533.428437) scale(0.1 -0.1)">
       <use xlink:href="#DejaVuSans-31"/>
       <use xlink:href="#DejaVuSans-2e" transform="translate(63.623047 0)"/>
       <use xlink:href="#DejaVuSans-35" transform="translate(95.410156 0)"/>
       <use xlink:href="#DejaVuSans-30" transform="translate(159.033203 0)"/>
      </g>
     </g>
    </g>
    <g id="xtick_16">
     <g id="line2d_53">
      <path d="M 644.046883 518.83 
L 644.046883 394.4975 
" clip-path="url(#pcf8fc1a37f)" style="fill: none; stroke-dasharray: 2.96,1.28; stroke-dashoffset: 0; stroke: #b0b0b0; stroke-opacity: 0.4; stroke-width: 0.8"/>
     </g>
     <g id="line2d_54">
      <g>
       <use xlink:href="#m4546218ee2" x="644.046883" y="518.83" style="stroke: #000000; stroke-width: 0.8"/>
      </g>
     </g>
     <g id="text_20">
      <!-- 1.75 -->
      <g transform="translate(632.91407 533.428437) scale(0.1 -0.1)">
       <use xlink:href="#DejaVuSans-31"/>
       <use xlink:href="#DejaVuSans-2e" transform="translate(63.623047 0)"/>
       <use xlink:href="#DejaVuSans-37" transform="translate(95.410156 0)"/>
       <use xlink:href="#DejaVuSans-35" transform="translate(159.033203 0)"/>
      </g>
     </g>
    </g>
    <g id="text_21">
     <!-- $\tilde{\Omega}t/(2\pi)$ -->
     <g transform="translate(346.235625 556.464687) scale(0.18 -0.18)">
      <defs>
       <path id="DejaVuSans-303" d="M -1621 4281 
L -1799 4453 
Q -1867 4516 -1919 4545 
Q -1971 4575 -2011 4575 
Q -2130 4575 -2186 4461 
Q -2242 4347 -2249 4091 
L -2639 4091 
Q -2633 4513 -2473 4742 
Q -2314 4972 -2030 4972 
Q -1911 4972 -1811 4928 
Q -1711 4884 -1596 4781 
L -1417 4609 
Q -1349 4547 -1297 4517 
Q -1246 4488 -1205 4488 
Q -1086 4488 -1030 4602 
Q -974 4716 -967 4972 
L -577 4972 
Q -583 4550 -742 4320 
Q -902 4091 -1186 4091 
Q -1305 4091 -1405 4134 
Q -1505 4178 -1621 4281 
z
" transform="scale(0.015625)"/>
       <path id="DejaVuSans-3a9" d="M 4647 556 
L 4647 0 
L 2772 0 
L 2772 556 
Q 3325 859 3634 1378 
Q 3944 1897 3944 2528 
Q 3944 3278 3531 3731 
Q 3119 4184 2444 4184 
Q 1769 4184 1355 3729 
Q 941 3275 941 2528 
Q 941 1897 1250 1378 
Q 1563 859 2119 556 
L 2119 0 
L 244 0 
L 244 556 
L 1241 556 
Q 747 991 519 1456 
Q 294 1922 294 2497 
Q 294 3491 894 4106 
Q 1491 4722 2444 4722 
Q 3391 4722 3994 4106 
Q 4594 3494 4594 2528 
Q 4594 1922 4372 1459 
Q 4150 997 3647 556 
L 4647 556 
z
" transform="scale(0.015625)"/>
       <path id="DejaVuSans-Oblique-74" d="M 2706 3500 
L 2619 3053 
L 1472 3053 
L 1100 1153 
Q 1081 1047 1072 975 
Q 1063 903 1063 863 
Q 1063 663 1183 572 
Q 1303 481 1569 481 
L 2150 481 
L 2053 0 
L 1503 0 
Q 991 0 739 200 
Q 488 400 488 806 
Q 488 878 497 964 
Q 506 1050 525 1153 
L 897 3053 
L 409 3053 
L 500 3500 
L 978 3500 
L 1172 4494 
L 1747 4494 
L 1556 3500 
L 2706 3500 
z
" transform="scale(0.015625)"/>
       <path id="DejaVuSans-2f" d="M 1625 4666 
L 2156 4666 
L 531 -594 
L 0 -594 
L 1625 4666 
z
" transform="scale(0.015625)"/>
       <path id="DejaVuSans-28" d="M 1984 4856 
Q 1566 4138 1362 3434 
Q 1159 2731 1159 2009 
Q 1159 1288 1364 580 
Q 1569 -128 1984 -844 
L 1484 -844 
Q 1016 -109 783 600 
Q 550 1309 550 2009 
Q 550 2706 781 3412 
Q 1013 4119 1484 4856 
L 1984 4856 
z
" transform="scale(0.015625)"/>
       <path id="DejaVuSans-Oblique-3c0" d="M 584 3500 
L 3938 3500 
L 3825 2925 
L 3384 2925 
L 2966 775 
Q 2922 550 2981 450 
Q 3038 353 3209 353 
Q 3256 353 3325 363 
Q 3397 369 3419 372 
L 3338 -44 
Q 3222 -84 3103 -103 
Q 2981 -122 2866 -122 
Q 2491 -122 2388 81 
Q 2284 288 2391 838 
L 2797 2925 
L 1506 2925 
L 938 0 
L 350 0 
L 919 2925 
L 472 2925 
L 584 3500 
z
" transform="scale(0.015625)"/>
       <path id="DejaVuSans-29" d="M 513 4856 
L 1013 4856 
Q 1481 4119 1714 3412 
Q 1947 2706 1947 2009 
Q 1947 1309 1714 600 
Q 1481 -109 1013 -844 
L 513 -844 
Q 928 -128 1133 580 
Q 1338 1288 1338 2009 
Q 1338 2731 1133 3434 
Q 928 4138 513 4856 
z
" transform="scale(0.015625)"/>
      </defs>
      <use xlink:href="#DejaVuSans-303" transform="translate(73.338379 23.3125)"/>
      <use xlink:href="#DejaVuSans-3a9" transform="translate(0 0.953125)"/>
      <use xlink:href="#DejaVuSans-Oblique-74" transform="translate(76.416016 0.953125)"/>
      <use xlink:href="#DejaVuSans-2f" transform="translate(115.625 0.953125)"/>
      <use xlink:href="#DejaVuSans-28" transform="translate(149.316406 0.953125)"/>
      <use xlink:href="#DejaVuSans-32" transform="translate(188.330078 0.953125)"/>
      <use xlink:href="#DejaVuSans-Oblique-3c0" transform="translate(251.953125 0.953125)"/>
      <use xlink:href="#DejaVuSans-29" transform="translate(312.158203 0.953125)"/>
     </g>
    </g>
   </g>
   <g id="matplotlib.axis_4">
    <g id="text_22">
     <!-- Pulses -->
     <g transform="translate(44.651563 478.743281) rotate(-90) scale(0.14 -0.14)">
      <defs>
       <path id="DejaVuSans-73" d="M 2834 3397 
L 2834 2853 
Q 2591 2978 2328 3040 
Q 2066 3103 1784 3103 
Q 1356 3103 1142 2972 
Q 928 2841 928 2578 
Q 928 2378 1081 2264 
Q 1234 2150 1697 2047 
L 1894 2003 
Q 2506 1872 2764 1633 
Q 3022 1394 3022 966 
Q 3022 478 2636 193 
Q 2250 -91 1575 -91 
Q 1294 -91 989 -36 
Q 684 19 347 128 
L 347 722 
Q 666 556 975 473 
Q 1284 391 1588 391 
Q 1994 391 2212 530 
Q 2431 669 2431 922 
Q 2431 1156 2273 1281 
Q 2116 1406 1581 1522 
L 1381 1569 
Q 847 1681 609 1914 
Q 372 2147 372 2553 
Q 372 3047 722 3315 
Q 1072 3584 1716 3584 
Q 2034 3584 2315 3537 
Q 2597 3491 2834 3397 
z
" transform="scale(0.015625)"/>
      </defs>
      <use xlink:href="#DejaVuSans-50"/>
      <use xlink:href="#DejaVuSans-75" transform="translate(58.552734 0)"/>
      <use xlink:href="#DejaVuSans-6c" transform="translate(121.931641 0)"/>
      <use xlink:href="#DejaVuSans-73" transform="translate(149.714844 0)"/>
      <use xlink:href="#DejaVuSans-65" transform="translate(201.814453 0)"/>
      <use xlink:href="#DejaVuSans-73" transform="translate(263.337891 0)"/>
     </g>
    </g>
   </g>
   <g id="patch_13">
    <path d="M 51.563125 518.83 
L 51.563125 394.4975 
" style="fill: none; stroke: #000000; stroke-width: 0.8; stroke-linejoin: miter; stroke-linecap: square"/>
   </g>
   <g id="patch_14">
    <path d="M 704.268125 518.83 
L 704.268125 394.4975 
" style="fill: none; stroke: #000000; stroke-width: 0.8; stroke-linejoin: miter; stroke-linecap: square"/>
   </g>
   <g id="patch_15">
    <path d="M 51.563125 518.83 
L 704.268125 518.83 
" style="fill: none; stroke: #000000; stroke-width: 0.8; stroke-linejoin: miter; stroke-linecap: square"/>
   </g>
   <g id="patch_16">
    <path d="M 51.563125 394.4975 
L 704.268125 394.4975 
" style="fill: none; stroke: #000000; stroke-width: 0.8; stroke-linejoin: miter; stroke-linecap: square"/>
   </g>
   <g id="text_23">
    <!-- r3 -->
    <g transform="translate(149.562822 453.824219) scale(0.1 -0.1)">
     <defs>
      <path id="DejaVuSans-72" d="M 2631 2963 
Q 2534 3019 2420 3045 
Q 2306 3072 2169 3072 
Q 1681 3072 1420 2755 
Q 1159 2438 1159 1844 
L 1159 0 
L 581 0 
L 581 3500 
L 1159 3500 
L 1159 2956 
Q 1341 3275 1631 3429 
Q 1922 3584 2338 3584 
Q 2397 3584 2469 3576 
Q 2541 3569 2628 3553 
L 2631 2963 
z
" transform="scale(0.015625)"/>
     </defs>
     <use xlink:href="#DejaVuSans-72"/>
     <use xlink:href="#DejaVuSans-33" transform="translate(41.113281 0)"/>
    </g>
    <!-- L1 -->
    <g transform="translate(148.832353 465.022031) scale(0.1 -0.1)">
     <defs>
      <path id="DejaVuSans-4c" d="M 628 4666 
L 1259 4666 
L 1259 531 
L 3531 531 
L 3531 0 
L 628 0 
L 628 4666 
z
" transform="scale(0.015625)"/>
     </defs>
     <use xlink:href="#DejaVuSans-4c"/>
     <use xlink:href="#DejaVuSans-31" transform="translate(55.712891 0)"/>
    </g>
   </g>
   <g id="text_24">
    <!-- r2 -->
    <g transform="translate(297.904867 453.824219) scale(0.1 -0.1)">
     <use xlink:href="#DejaVuSans-72"/>
     <use xlink:href="#DejaVuSans-32" transform="translate(41.113281 0)"/>
    </g>
    <!-- L1 -->
    <g transform="translate(297.174398 465.022031) scale(0.1 -0.1)">
     <use xlink:href="#DejaVuSans-4c"/>
     <use xlink:href="#DejaVuSans-31" transform="translate(55.712891 0)"/>
    </g>
   </g>
   <g id="text_25">
    <!-- r3 -->
    <g transform="translate(446.246913 453.824219) scale(0.1 -0.1)">
     <use xlink:href="#DejaVuSans-72"/>
     <use xlink:href="#DejaVuSans-33" transform="translate(41.113281 0)"/>
    </g>
    <!-- L5 -->
    <g transform="translate(445.516444 465.022031) scale(0.1 -0.1)">
     <use xlink:href="#DejaVuSans-4c"/>
     <use xlink:href="#DejaVuSans-35" transform="translate(55.712891 0)"/>
    </g>
   </g>
   <g id="text_26">
    <!-- r2 -->
    <g transform="translate(594.588958 453.824219) scale(0.1 -0.1)">
     <use xlink:href="#DejaVuSans-72"/>
     <use xlink:href="#DejaVuSans-32" transform="translate(41.113281 0)"/>
    </g>
    <!-- L5 -->
    <g transform="translate(593.858489 465.022031) scale(0.1 -0.1)">
     <use xlink:href="#DejaVuSans-4c"/>
     <use xlink:href="#DejaVuSans-35" transform="translate(55.712891 0)"/>
    </g>
   </g>
  </g>
 </g>
 <defs>
  <clipPath id="p4b48c61aa9">
   <rect x="51.563125" y="7.2" width="652.705" height="372.9975"/>
  </clipPath>
  <clipPath id="pcf8fc1a37f">
   <rect x="51.563125" y="394.4975" width="652.705" height="124.3325"/>
  </clipPath>
 </defs>
</svg>
