<?xml version="1.0" encoding="utf-8" standalone="no"?>
<!DOCTYPE svg PUBLIC "-//W3C//DTD SVG 1.1//EN"
  "http://www.w3.org/Graphics/SVG/1.1/DTD/svg11.dtd">
<svg xmlns:xlink="http://www.w3.org/1999/xlink" width="623.766404pt" height="515.735312pt" viewBox="0 0 623.766404 515.735312" xmlns="http://www.w3.org/2000/svg" version="1.1">
 <metadata>
  <rdf:RDF xmlns:dc="http://purl.org/dc/elements/1.1/" xmlns:cc="http://creativecommons.org/ns#" xmlns:rdf="http://www.w3.org/1999/02/22-rdf-syntax-ns#">
   <cc:Work>
    <dc:type rdf:resource="http://purl.org/dc/dcmitype/StillImage"/>
    <dc:date>2026-01-07T17:14:54.473449</dc:date>
    <dc:format>image/svg+xml</dc:format>
    <dc:creator>
     <cc:Agent>
      <dc:title>Matplotlib v3.10.7, https://matplotlib.org/</dc:title>
     </cc:Agent>
    </dc:creator>
   </cc:Work>
  </rdf:RDF>
 </metadata>
 <defs>
  <style type="text/css">*{stroke-linejoin: round; stroke-linecap: butt}</style>
 </defs>
 <g id="figure_1">
  <g id="patch_1">
   <path d="M 0 515.735312 
L 623.766404 515.735312 
L 623.766404 0 
L 0 0 
z
" style="fill: #ffffff"/>
  </g>
  <g id="axes_1">
   <g id="patch_2">
    <path d="M 54.7475 470.397187 
L 612.7475 470.397187 
L 612.7475 26.877187 
L 54.7475 26.877187 
z
" style="fill: #ffffff"/>
   </g>
   <g id="patch_3">
    <path d="M 398.055075 450.237187 
C 408.833156 450.237187 419.171246 445.955011 426.7925 438.333757 
C 434.413754 430.712503 438.695931 420.374413 438.695931 409.596332 
C 438.695931 398.818251 434.413754 388.480162 426.7925 380.858908 
C 419.171246 373.237654 408.833156 368.955477 398.055075 368.955477 
C 387.276994 368.955477 376.938905 373.237654 369.317651 380.858908 
C 361.696397 388.480162 357.41422 398.818251 357.41422 409.596332 
C 357.41422 420.374413 361.696397 430.712503 369.317651 438.333757 
C 376.938905 445.955011 387.276994 450.237187 398.055075 450.237187 
L 398.055075 450.237187 
z
" clip-path="url(#p92cf4af231)" style="fill: none; opacity: 0.7; stroke-dasharray: 7.4,3.2; stroke-dashoffset: 0; stroke: #1f77b4; stroke-width: 2; stroke-linejoin: miter"/>
   </g>
   <g id="patch_4">
    <path d="M 354.974125 416.507918 
C 365.752206 416.507918 376.090295 412.225741 383.711549 404.604487 
C 391.332804 396.983233 395.61498 386.645143 395.61498 375.867062 
C 395.61498 365.088982 391.332804 354.750892 383.711549 347.129638 
C 376.090295 339.508384 365.752206 335.226207 354.974125 335.226207 
C 344.196044 335.226207 333.857955 339.508384 326.236701 347.129638 
C 318.615447 354.750892 314.33327 365.088982 314.33327 375.867062 
C 314.33327 386.645143 318.615447 396.983233 326.236701 404.604487 
C 333.857955 412.225741 344.196044 416.507918 354.974125 416.507918 
L 354.974125 416.507918 
z
" clip-path="url(#p92cf4af231)" style="fill: none; opacity: 0.7; stroke-dasharray: 7.4,3.2; stroke-dashoffset: 0; stroke: #aec7e8; stroke-width: 2; stroke-linejoin: miter"/>
   </g>
   <g id="patch_5">
    <path d="M 311.893175 382.778648 
C 322.671256 382.778648 333.009345 378.496471 340.630599 370.875217 
C 348.251853 363.253963 352.53403 352.915874 352.53403 342.137793 
C 352.53403 331.359712 348.251853 321.021622 340.630599 313.400368 
C 333.009345 305.779114 322.671256 301.496937 311.893175 301.496937 
C 301.115094 301.496937 290.777004 305.779114 283.15575 313.400368 
C 275.534496 321.021622 271.252319 331.359712 271.252319 342.137793 
C 271.252319 352.915874 275.534496 363.253963 283.15575 370.875217 
C 290.777004 378.496471 301.115094 382.778648 311.893175 382.778648 
L 311.893175 382.778648 
z
" clip-path="url(#p92cf4af231)" style="fill: none; opacity: 0.7; stroke-dasharray: 7.4,3.2; stroke-dashoffset: 0; stroke: #ff7f0e; stroke-width: 2; stroke-linejoin: miter"/>
   </g>
   <g id="patch_6">
    <path d="M 268.812225 349.049378 
C 279.590306 349.049378 289.928395 344.767201 297.549649 337.145947 
C 305.170903 329.524693 309.45308 319.186604 309.45308 308.408523 
C 309.45308 297.630442 305.170903 287.292353 297.549649 279.671099 
C 289.928395 272.049844 279.590306 267.767668 268.812225 267.767668 
C 258.034144 267.767668 247.696054 272.049844 240.0748 279.671099 
C 232.453546 287.292353 228.171369 297.630442 228.171369 308.408523 
C 228.171369 319.186604 232.453546 329.524693 240.0748 337.145947 
C 247.696054 344.767201 258.034144 349.049378 268.812225 349.049378 
L 268.812225 349.049378 
z
" clip-path="url(#p92cf4af231)" style="fill: none; opacity: 0.7; stroke-dasharray: 7.4,3.2; stroke-dashoffset: 0; stroke: #ffbb78; stroke-width: 2; stroke-linejoin: miter"/>
   </g>
   <g id="patch_7">
    <path d="M 396.582452 394.638694 
C 406.479999 394.638694 415.973502 390.706357 422.972125 383.707734 
C 429.970748 376.709111 433.903085 367.215608 433.903085 357.318061 
C 433.903085 347.420513 429.970748 337.92701 422.972125 330.928387 
C 415.973502 323.929764 406.479999 319.997427 396.582452 319.997427 
C 386.684904 319.997427 377.191401 323.929764 370.192778 330.928387 
C 363.194155 337.92701 359.261818 347.420513 359.261818 357.318061 
C 359.261818 367.215608 363.194155 376.709111 370.192778 383.707734 
C 377.191401 390.706357 386.684904 394.638694 396.582452 394.638694 
L 396.582452 394.638694 
z
" clip-path="url(#p92cf4af231)" style="fill: none; opacity: 0.7; stroke-dasharray: 7.4,3.2; stroke-dashoffset: 0; stroke: #2ca02c; stroke-width: 2; stroke-linejoin: miter"/>
   </g>
   <g id="patch_8">
    <path d="M 353.501501 360.909425 
C 363.399049 360.909425 372.892551 356.977087 379.891175 349.978464 
C 386.889798 342.979841 390.822135 333.486339 390.822135 323.588791 
C 390.822135 313.691243 386.889798 304.197741 379.891175 297.199118 
C 372.892551 290.200494 363.399049 286.268157 353.501501 286.268157 
C 343.603954 286.268157 334.110451 290.200494 327.111828 297.199118 
C 320.113205 304.197741 316.180868 313.691243 316.180868 323.588791 
C 316.180868 333.486339 320.113205 342.979841 327.111828 349.978464 
C 334.110451 356.977087 343.603954 360.909425 353.501501 360.909425 
L 353.501501 360.909425 
z
" clip-path="url(#p92cf4af231)" style="fill: none; opacity: 0.7; stroke-dasharray: 7.4,3.2; stroke-dashoffset: 0; stroke: #98df8a; stroke-width: 2; stroke-linejoin: miter"/>
   </g>
   <g id="patch_9">
    <path d="M 310.420551 327.180155 
C 320.318099 327.180155 329.811601 323.247817 336.810224 316.249194 
C 343.808848 309.250571 347.741185 299.757069 347.741185 289.859521 
C 347.741185 279.961973 343.808848 270.468471 336.810224 263.469848 
C 329.811601 256.471225 320.318099 252.538887 310.420551 252.538887 
C 300.523003 252.538887 291.029501 256.471225 284.030878 263.469848 
C 277.032255 270.468471 273.099917 279.961973 273.099917 289.859521 
C 273.099917 299.757069 277.032255 309.250571 284.030878 316.249194 
C 291.029501 323.247817 300.523003 327.180155 310.420551 327.180155 
L 310.420551 327.180155 
z
" clip-path="url(#p92cf4af231)" style="fill: none; opacity: 0.7; stroke-dasharray: 7.4,3.2; stroke-dashoffset: 0; stroke: #d62728; stroke-width: 2; stroke-linejoin: miter"/>
   </g>
   <g id="patch_10">
    <path d="M 267.339601 293.450885 
C 277.237149 293.450885 286.730651 289.518548 293.729274 282.519925 
C 300.727897 275.521301 304.660235 266.027799 304.660235 256.130251 
C 304.660235 246.232704 300.727897 236.739201 293.729274 229.740578 
C 286.730651 222.741955 277.237149 218.809618 267.339601 218.809618 
C 257.442053 218.809618 247.948551 222.741955 240.949928 229.740578 
C 233.951305 236.739201 230.018967 246.232704 230.018967 256.130251 
C 230.018967 266.027799 233.951305 275.521301 240.949928 282.519925 
C 247.948551 289.518548 257.442053 293.450885 267.339601 293.450885 
L 267.339601 293.450885 
z
" clip-path="url(#p92cf4af231)" style="fill: none; opacity: 0.7; stroke-dasharray: 7.4,3.2; stroke-dashoffset: 0; stroke: #ff9896; stroke-width: 2; stroke-linejoin: miter"/>
   </g>
   <g id="patch_11">
    <path d="M 398.368925 336.551726 
C 408.266473 336.551726 417.759975 332.619388 424.758599 325.620765 
C 431.757222 318.622142 435.689559 309.12864 435.689559 299.231092 
C 435.689559 289.333544 431.757222 279.840042 424.758599 272.841419 
C 417.759975 265.842796 408.266473 261.910458 398.368925 261.910458 
C 388.471378 261.910458 378.977875 265.842796 371.979252 272.841419 
C 364.980629 279.840042 361.048291 289.333544 361.048291 299.231092 
C 361.048291 309.12864 364.980629 318.622142 371.979252 325.620765 
C 378.977875 332.619388 388.471378 336.551726 398.368925 336.551726 
L 398.368925 336.551726 
z
" clip-path="url(#p92cf4af231)" style="fill: none; opacity: 0.7; stroke-dasharray: 7.4,3.2; stroke-dashoffset: 0; stroke: #9467bd; stroke-width: 2; stroke-linejoin: miter"/>
   </g>
   <g id="patch_12">
    <path d="M 355.287975 302.822456 
C 365.185523 302.822456 374.679025 298.890119 381.677648 291.891496 
C 388.676271 284.892872 392.608609 275.39937 392.608609 265.501822 
C 392.608609 255.604275 388.676271 246.110772 381.677648 239.112149 
C 374.679025 232.113526 365.185523 228.181189 355.287975 228.181189 
C 345.390427 228.181189 335.896925 232.113526 328.898302 239.112149 
C 321.899679 246.110772 317.967341 255.604275 317.967341 265.501822 
C 317.967341 275.39937 321.899679 284.892872 328.898302 291.891496 
C 335.896925 298.890119 345.390427 302.822456 355.287975 302.822456 
L 355.287975 302.822456 
z
" clip-path="url(#p92cf4af231)" style="fill: none; opacity: 0.7; stroke-dasharray: 7.4,3.2; stroke-dashoffset: 0; stroke: #c5b0d5; stroke-width: 2; stroke-linejoin: miter"/>
   </g>
   <g id="patch_13">
    <path d="M 312.207025 269.093186 
C 322.104573 269.093186 331.598075 265.160849 338.596698 258.162226 
C 345.595321 251.163603 349.527659 241.6701 349.527659 231.772553 
C 349.527659 221.875005 345.595321 212.381503 338.596698 205.382879 
C 331.598075 198.384256 322.104573 194.451919 312.207025 194.451919 
C 302.309477 194.451919 292.815975 198.384256 285.817352 205.382879 
C 278.818729 212.381503 274.886391 221.875005 274.886391 231.772553 
C 274.886391 241.6701 278.818729 251.163603 285.817352 258.162226 
C 292.815975 265.160849 302.309477 269.093186 312.207025 269.093186 
L 312.207025 269.093186 
z
" clip-path="url(#p92cf4af231)" style="fill: none; opacity: 0.7; stroke-dasharray: 7.4,3.2; stroke-dashoffset: 0; stroke: #8c564b; stroke-width: 2; stroke-linejoin: miter"/>
   </g>
   <g id="patch_14">
    <path d="M 269.126075 235.363917 
C 279.023622 235.363917 288.517125 231.431579 295.515748 224.432956 
C 302.514371 217.434333 306.446709 207.940831 306.446709 198.043283 
C 306.446709 188.145735 302.514371 178.652233 295.515748 171.65361 
C 288.517125 164.654987 279.023622 160.722649 269.126075 160.722649 
C 259.228527 160.722649 249.735025 164.654987 242.736401 171.65361 
C 235.737778 178.652233 231.805441 188.145735 231.805441 198.043283 
C 231.805441 207.940831 235.737778 217.434333 242.736401 224.432956 
C 249.735025 231.431579 259.228527 235.363917 269.126075 235.363917 
L 269.126075 235.363917 
z
" clip-path="url(#p92cf4af231)" style="fill: none; opacity: 0.7; stroke-dasharray: 7.4,3.2; stroke-dashoffset: 0; stroke: #c49c94; stroke-width: 2; stroke-linejoin: miter"/>
   </g>
   <g id="patch_15">
    <path d="M 400.155399 278.464757 
C 410.052947 278.464757 419.546449 274.53242 426.545072 267.533797 
C 433.543695 260.535174 437.476033 251.041671 437.476033 241.144124 
C 437.476033 231.246576 433.543695 221.753074 426.545072 214.75445 
C 419.546449 207.755827 410.052947 203.82349 400.155399 203.82349 
C 390.257851 203.82349 380.764349 207.755827 373.765726 214.75445 
C 366.767103 221.753074 362.834765 231.246576 362.834765 241.144124 
C 362.834765 251.041671 366.767103 260.535174 373.765726 267.533797 
C 380.764349 274.53242 390.257851 278.464757 400.155399 278.464757 
L 400.155399 278.464757 
z
" clip-path="url(#p92cf4af231)" style="fill: none; opacity: 0.7; stroke-dasharray: 7.4,3.2; stroke-dashoffset: 0; stroke: #e377c2; stroke-width: 2; stroke-linejoin: miter"/>
   </g>
   <g id="patch_16">
    <path d="M 357.074449 244.735488 
C 366.971997 244.735488 376.465499 240.80315 383.464122 233.804527 
C 390.462745 226.805904 394.395083 217.312402 394.395083 207.414854 
C 394.395083 197.517306 390.462745 188.023804 383.464122 181.025181 
C 376.465499 174.026558 366.971997 170.09422 357.074449 170.09422 
C 347.176901 170.09422 337.683399 174.026558 330.684776 181.025181 
C 323.686152 188.023804 319.753815 197.517306 319.753815 207.414854 
C 319.753815 217.312402 323.686152 226.805904 330.684776 233.804527 
C 337.683399 240.80315 347.176901 244.735488 357.074449 244.735488 
L 357.074449 244.735488 
z
" clip-path="url(#p92cf4af231)" style="fill: none; opacity: 0.7; stroke-dasharray: 7.4,3.2; stroke-dashoffset: 0; stroke: #f7b6d2; stroke-width: 2; stroke-linejoin: miter"/>
   </g>
   <g id="patch_17">
    <path d="M 313.993499 211.006218 
C 323.891046 211.006218 333.384549 207.073881 340.383172 200.075257 
C 347.381795 193.076634 351.314132 183.583132 351.314132 173.685584 
C 351.314132 163.788036 347.381795 154.294534 340.383172 147.295911 
C 333.384549 140.297288 323.891046 136.36495 313.993499 136.36495 
C 304.095951 136.36495 294.602449 140.297288 287.603825 147.295911 
C 280.605202 154.294534 276.672865 163.788036 276.672865 173.685584 
C 276.672865 183.583132 280.605202 193.076634 287.603825 200.075257 
C 294.602449 207.073881 304.095951 211.006218 313.993499 211.006218 
L 313.993499 211.006218 
z
" clip-path="url(#p92cf4af231)" style="fill: none; opacity: 0.7; stroke-dasharray: 7.4,3.2; stroke-dashoffset: 0; stroke: #7f7f7f; stroke-width: 2; stroke-linejoin: miter"/>
   </g>
   <g id="patch_18">
    <path d="M 270.912548 177.276948 
C 280.810096 177.276948 290.303599 173.344611 297.302222 166.345988 
C 304.300845 159.347365 308.233182 149.853862 308.233182 139.956314 
C 308.233182 130.058767 304.300845 120.565264 297.302222 113.566641 
C 290.303599 106.568018 280.810096 102.635681 270.912548 102.635681 
C 261.015001 102.635681 251.521498 106.568018 244.522875 113.566641 
C 237.524252 120.565264 233.591915 130.058767 233.591915 139.956314 
C 233.591915 149.853862 237.524252 159.347365 244.522875 166.345988 
C 251.521498 173.344611 261.015001 177.276948 270.912548 177.276948 
L 270.912548 177.276948 
z
" clip-path="url(#p92cf4af231)" style="fill: none; opacity: 0.7; stroke-dasharray: 7.4,3.2; stroke-dashoffset: 0; stroke: #c7c7c7; stroke-width: 2; stroke-linejoin: miter"/>
   </g>
   <g id="patch_19">
    <path d="M 398.682775 229.506707 
C 409.460856 229.506707 419.798946 225.224531 427.4202 217.603276 
C 435.041454 209.982022 439.323631 199.643933 439.323631 188.865852 
C 439.323631 178.087771 435.041454 167.749682 427.4202 160.128428 
C 419.798946 152.507174 409.460856 148.224997 398.682775 148.224997 
C 387.904694 148.224997 377.566605 152.507174 369.945351 160.128428 
C 362.324097 167.749682 358.04192 178.087771 358.04192 188.865852 
C 358.04192 199.643933 362.324097 209.982022 369.945351 217.603276 
C 377.566605 225.224531 387.904694 229.506707 398.682775 229.506707 
L 398.682775 229.506707 
z
" clip-path="url(#p92cf4af231)" style="fill: none; opacity: 0.7; stroke-dasharray: 7.4,3.2; stroke-dashoffset: 0; stroke: #bcbd22; stroke-width: 2; stroke-linejoin: miter"/>
   </g>
   <g id="patch_20">
    <path d="M 355.601825 195.777438 
C 366.379906 195.777438 376.717996 191.495261 384.33925 183.874007 
C 391.960504 176.252753 396.242681 165.914663 396.242681 155.136582 
C 396.242681 144.358501 391.960504 134.020412 384.33925 126.399158 
C 376.717996 118.777904 366.379906 114.495727 355.601825 114.495727 
C 344.823744 114.495727 334.485655 118.777904 326.864401 126.399158 
C 319.243147 134.020412 314.96097 144.358501 314.96097 155.136582 
C 314.96097 165.914663 319.243147 176.252753 326.864401 183.874007 
C 334.485655 191.495261 344.823744 195.777438 355.601825 195.777438 
L 355.601825 195.777438 
z
" clip-path="url(#p92cf4af231)" style="fill: none; opacity: 0.7; stroke-dasharray: 7.4,3.2; stroke-dashoffset: 0; stroke: #dbdb8d; stroke-width: 2; stroke-linejoin: miter"/>
   </g>
   <g id="patch_21">
    <path d="M 312.520875 162.048168 
C 323.298956 162.048168 333.637045 157.765991 341.258299 150.144737 
C 348.879553 142.523483 353.16173 132.185393 353.16173 121.407313 
C 353.16173 110.629232 348.879553 100.291142 341.258299 92.669888 
C 333.637045 85.048634 323.298956 80.766457 312.520875 80.766457 
C 301.742794 80.766457 291.404705 85.048634 283.783451 92.669888 
C 276.162196 100.291142 271.88002 110.629232 271.88002 121.407313 
C 271.88002 132.185393 276.162196 142.523483 283.783451 150.144737 
C 291.404705 157.765991 301.742794 162.048168 312.520875 162.048168 
L 312.520875 162.048168 
z
" clip-path="url(#p92cf4af231)" style="fill: none; opacity: 0.7; stroke-dasharray: 7.4,3.2; stroke-dashoffset: 0; stroke: #17becf; stroke-width: 2; stroke-linejoin: miter"/>
   </g>
   <g id="patch_22">
    <path d="M 269.439925 128.318898 
C 280.218006 128.318898 290.556095 124.036721 298.177349 116.415467 
C 305.798603 108.794213 310.08078 98.456124 310.08078 87.678043 
C 310.08078 76.899962 305.798603 66.561872 298.177349 58.940618 
C 290.556095 51.319364 280.218006 47.037187 269.439925 47.037187 
C 258.661844 47.037187 248.323754 51.319364 240.7025 58.940618 
C 233.081246 66.561872 228.799069 76.899962 228.799069 87.678043 
C 228.799069 98.456124 233.081246 108.794213 240.7025 116.415467 
C 248.323754 124.036721 258.661844 128.318898 269.439925 128.318898 
L 269.439925 128.318898 
z
" clip-path="url(#p92cf4af231)" style="fill: none; opacity: 0.7; stroke-dasharray: 7.4,3.2; stroke-dashoffset: 0; stroke: #9edae5; stroke-width: 2; stroke-linejoin: miter"/>
   </g>
   <g id="matplotlib.axis_1">
    <g id="xtick_1">
     <g id="line2d_1">
      <path d="M 74.473469 470.397187 
L 74.473469 26.877187 
" clip-path="url(#p92cf4af231)" style="fill: none; stroke-dasharray: 2.96,1.28; stroke-dashoffset: 0; stroke: #b0b0b0; stroke-opacity: 0.6; stroke-width: 0.8"/>
     </g>
     <g id="line2d_2">
      <defs>
       <path id="m7790d439e0" d="M 0 0 
L 0 3.5 
" style="stroke: #000000; stroke-width: 0.8"/>
      </defs>
      <g>
       <use xlink:href="#m7790d439e0" x="74.473469" y="470.397187" style="stroke: #000000; stroke-width: 0.8"/>
      </g>
     </g>
     <g id="text_1">
      <!-- −125 -->
      <g transform="translate(60.739876 484.995625) scale(0.1 -0.1)">
       <defs>
        <path id="DejaVuSans-2212" d="M 678 2272 
L 4684 2272 
L 4684 1741 
L 678 1741 
L 678 2272 
z
" transform="scale(0.015625)"/>
        <path id="DejaVuSans-31" d="M 794 531 
L 1825 531 
L 1825 4091 
L 703 3866 
L 703 4441 
L 1819 4666 
L 2450 4666 
L 2450 531 
L 3481 531 
L 3481 0 
L 794 0 
L 794 531 
z
" transform="scale(0.015625)"/>
        <path id="DejaVuSans-32" d="M 1228 531 
L 3431 531 
L 3431 0 
L 469 0 
L 469 531 
Q 828 903 1448 1529 
Q 2069 2156 2228 2338 
Q 2531 2678 2651 2914 
Q 2772 3150 2772 3378 
Q 2772 3750 2511 3984 
Q 2250 4219 1831 4219 
Q 1534 4219 1204 4116 
Q 875 4013 500 3803 
L 500 4441 
Q 881 4594 1212 4672 
Q 1544 4750 1819 4750 
Q 2544 4750 2975 4387 
Q 3406 4025 3406 3419 
Q 3406 3131 3298 2873 
Q 3191 2616 2906 2266 
Q 2828 2175 2409 1742 
Q 1991 1309 1228 531 
z
" transform="scale(0.015625)"/>
        <path id="DejaVuSans-35" d="M 691 4666 
L 3169 4666 
L 3169 4134 
L 1269 4134 
L 1269 2991 
Q 1406 3038 1543 3061 
Q 1681 3084 1819 3084 
Q 2600 3084 3056 2656 
Q 3513 2228 3513 1497 
Q 3513 744 3044 326 
Q 2575 -91 1722 -91 
Q 1428 -91 1123 -41 
Q 819 9 494 109 
L 494 744 
Q 775 591 1075 516 
Q 1375 441 1709 441 
Q 2250 441 2565 725 
Q 2881 1009 2881 1497 
Q 2881 1984 2565 2268 
Q 2250 2553 1709 2553 
Q 1456 2553 1204 2497 
Q 953 2441 691 2322 
L 691 4666 
z
" transform="scale(0.015625)"/>
       </defs>
       <use xlink:href="#DejaVuSans-2212"/>
       <use xlink:href="#DejaVuSans-31" transform="translate(83.789062 0)"/>
       <use xlink:href="#DejaVuSans-32" transform="translate(147.412109 0)"/>
       <use xlink:href="#DejaVuSans-35" transform="translate(211.035156 0)"/>
      </g>
     </g>
    </g>
    <g id="xtick_2">
     <g id="line2d_3">
      <path d="M 141.439774 470.397187 
L 141.439774 26.877187 
" clip-path="url(#p92cf4af231)" style="fill: none; stroke-dasharray: 2.96,1.28; stroke-dashoffset: 0; stroke: #b0b0b0; stroke-opacity: 0.6; stroke-width: 0.8"/>
     </g>
     <g id="line2d_4">
      <g>
       <use xlink:href="#m7790d439e0" x="141.439774" y="470.397187" style="stroke: #000000; stroke-width: 0.8"/>
      </g>
     </g>
     <g id="text_2">
      <!-- −100 -->
      <g transform="translate(127.70618 484.995625) scale(0.1 -0.1)">
       <defs>
        <path id="DejaVuSans-30" d="M 2034 4250 
Q 1547 4250 1301 3770 
Q 1056 3291 1056 2328 
Q 1056 1369 1301 889 
Q 1547 409 2034 409 
Q 2525 409 2770 889 
Q 3016 1369 3016 2328 
Q 3016 3291 2770 3770 
Q 2525 4250 2034 4250 
z
M 2034 4750 
Q 2819 4750 3233 4129 
Q 3647 3509 3647 2328 
Q 3647 1150 3233 529 
Q 2819 -91 2034 -91 
Q 1250 -91 836 529 
Q 422 1150 422 2328 
Q 422 3509 836 4129 
Q 1250 4750 2034 4750 
z
" transform="scale(0.015625)"/>
       </defs>
       <use xlink:href="#DejaVuSans-2212"/>
       <use xlink:href="#DejaVuSans-31" transform="translate(83.789062 0)"/>
       <use xlink:href="#DejaVuSans-30" transform="translate(147.412109 0)"/>
       <use xlink:href="#DejaVuSans-30" transform="translate(211.035156 0)"/>
      </g>
     </g>
    </g>
    <g id="xtick_3">
     <g id="line2d_5">
      <path d="M 208.406078 470.397187 
L 208.406078 26.877187 
" clip-path="url(#p92cf4af231)" style="fill: none; stroke-dasharray: 2.96,1.28; stroke-dashoffset: 0; stroke: #b0b0b0; stroke-opacity: 0.6; stroke-width: 0.8"/>
     </g>
     <g id="line2d_6">
      <g>
       <use xlink:href="#m7790d439e0" x="208.406078" y="470.397187" style="stroke: #000000; stroke-width: 0.8"/>
      </g>
     </g>
     <g id="text_3">
      <!-- −75 -->
      <g transform="translate(197.853734 484.995625) scale(0.1 -0.1)">
       <defs>
        <path id="DejaVuSans-37" d="M 525 4666 
L 3525 4666 
L 3525 4397 
L 1831 0 
L 1172 0 
L 2766 4134 
L 525 4134 
L 525 4666 
z
" transform="scale(0.015625)"/>
       </defs>
       <use xlink:href="#DejaVuSans-2212"/>
       <use xlink:href="#DejaVuSans-37" transform="translate(83.789062 0)"/>
       <use xlink:href="#DejaVuSans-35" transform="translate(147.412109 0)"/>
      </g>
     </g>
    </g>
    <g id="xtick_4">
     <g id="line2d_7">
      <path d="M 275.372382 470.397187 
L 275.372382 26.877187 
" clip-path="url(#p92cf4af231)" style="fill: none; stroke-dasharray: 2.96,1.28; stroke-dashoffset: 0; stroke: #b0b0b0; stroke-opacity: 0.6; stroke-width: 0.8"/>
     </g>
     <g id="line2d_8">
      <g>
       <use xlink:href="#m7790d439e0" x="275.372382" y="470.397187" style="stroke: #000000; stroke-width: 0.8"/>
      </g>
     </g>
     <g id="text_4">
      <!-- −50 -->
      <g transform="translate(264.820039 484.995625) scale(0.1 -0.1)">
       <use xlink:href="#DejaVuSans-2212"/>
       <use xlink:href="#DejaVuSans-35" transform="translate(83.789062 0)"/>
       <use xlink:href="#DejaVuSans-30" transform="translate(147.412109 0)"/>
      </g>
     </g>
    </g>
    <g id="xtick_5">
     <g id="line2d_9">
      <path d="M 342.338687 470.397187 
L 342.338687 26.877187 
" clip-path="url(#p92cf4af231)" style="fill: none; stroke-dasharray: 2.96,1.28; stroke-dashoffset: 0; stroke: #b0b0b0; stroke-opacity: 0.6; stroke-width: 0.8"/>
     </g>
     <g id="line2d_10">
      <g>
       <use xlink:href="#m7790d439e0" x="342.338687" y="470.397187" style="stroke: #000000; stroke-width: 0.8"/>
      </g>
     </g>
     <g id="text_5">
      <!-- −25 -->
      <g transform="translate(331.786343 484.995625) scale(0.1 -0.1)">
       <use xlink:href="#DejaVuSans-2212"/>
       <use xlink:href="#DejaVuSans-32" transform="translate(83.789062 0)"/>
       <use xlink:href="#DejaVuSans-35" transform="translate(147.412109 0)"/>
      </g>
     </g>
    </g>
    <g id="xtick_6">
     <g id="line2d_11">
      <path d="M 409.304991 470.397187 
L 409.304991 26.877187 
" clip-path="url(#p92cf4af231)" style="fill: none; stroke-dasharray: 2.96,1.28; stroke-dashoffset: 0; stroke: #b0b0b0; stroke-opacity: 0.6; stroke-width: 0.8"/>
     </g>
     <g id="line2d_12">
      <g>
       <use xlink:href="#m7790d439e0" x="409.304991" y="470.397187" style="stroke: #000000; stroke-width: 0.8"/>
      </g>
     </g>
     <g id="text_6">
      <!-- 0 -->
      <g transform="translate(406.123741 484.995625) scale(0.1 -0.1)">
       <use xlink:href="#DejaVuSans-30"/>
      </g>
     </g>
    </g>
    <g id="xtick_7">
     <g id="line2d_13">
      <path d="M 476.271295 470.397187 
L 476.271295 26.877187 
" clip-path="url(#p92cf4af231)" style="fill: none; stroke-dasharray: 2.96,1.28; stroke-dashoffset: 0; stroke: #b0b0b0; stroke-opacity: 0.6; stroke-width: 0.8"/>
     </g>
     <g id="line2d_14">
      <g>
       <use xlink:href="#m7790d439e0" x="476.271295" y="470.397187" style="stroke: #000000; stroke-width: 0.8"/>
      </g>
     </g>
     <g id="text_7">
      <!-- 25 -->
      <g transform="translate(469.908795 484.995625) scale(0.1 -0.1)">
       <use xlink:href="#DejaVuSans-32"/>
       <use xlink:href="#DejaVuSans-35" transform="translate(63.623047 0)"/>
      </g>
     </g>
    </g>
    <g id="xtick_8">
     <g id="line2d_15">
      <path d="M 543.2376 470.397187 
L 543.2376 26.877187 
" clip-path="url(#p92cf4af231)" style="fill: none; stroke-dasharray: 2.96,1.28; stroke-dashoffset: 0; stroke: #b0b0b0; stroke-opacity: 0.6; stroke-width: 0.8"/>
     </g>
     <g id="line2d_16">
      <g>
       <use xlink:href="#m7790d439e0" x="543.2376" y="470.397187" style="stroke: #000000; stroke-width: 0.8"/>
      </g>
     </g>
     <g id="text_8">
      <!-- 50 -->
      <g transform="translate(536.8751 484.995625) scale(0.1 -0.1)">
       <use xlink:href="#DejaVuSans-35"/>
       <use xlink:href="#DejaVuSans-30" transform="translate(63.623047 0)"/>
      </g>
     </g>
    </g>
    <g id="xtick_9">
     <g id="line2d_17">
      <path d="M 610.203904 470.397187 
L 610.203904 26.877187 
" clip-path="url(#p92cf4af231)" style="fill: none; stroke-dasharray: 2.96,1.28; stroke-dashoffset: 0; stroke: #b0b0b0; stroke-opacity: 0.6; stroke-width: 0.8"/>
     </g>
     <g id="line2d_18">
      <g>
       <use xlink:href="#m7790d439e0" x="610.203904" y="470.397187" style="stroke: #000000; stroke-width: 0.8"/>
      </g>
     </g>
     <g id="text_9">
      <!-- 75 -->
      <g transform="translate(603.841404 484.995625) scale(0.1 -0.1)">
       <use xlink:href="#DejaVuSans-37"/>
       <use xlink:href="#DejaVuSans-35" transform="translate(63.623047 0)"/>
      </g>
     </g>
    </g>
    <g id="text_10">
     <!-- X coordinate [$\mu$m] -->
     <g transform="translate(252.1175 504.755312) scale(0.18 -0.18)">
      <defs>
       <path id="DejaVuSans-58" d="M 403 4666 
L 1081 4666 
L 2241 2931 
L 3406 4666 
L 4084 4666 
L 2584 2425 
L 4184 0 
L 3506 0 
L 2194 1984 
L 872 0 
L 191 0 
L 1856 2491 
L 403 4666 
z
" transform="scale(0.015625)"/>
       <path id="DejaVuSans-20" transform="scale(0.015625)"/>
       <path id="DejaVuSans-63" d="M 3122 3366 
L 3122 2828 
Q 2878 2963 2633 3030 
Q 2388 3097 2138 3097 
Q 1578 3097 1268 2742 
Q 959 2388 959 1747 
Q 959 1106 1268 751 
Q 1578 397 2138 397 
Q 2388 397 2633 464 
Q 2878 531 3122 666 
L 3122 134 
Q 2881 22 2623 -34 
Q 2366 -91 2075 -91 
Q 1284 -91 818 406 
Q 353 903 353 1747 
Q 353 2603 823 3093 
Q 1294 3584 2113 3584 
Q 2378 3584 2631 3529 
Q 2884 3475 3122 3366 
z
" transform="scale(0.015625)"/>
       <path id="DejaVuSans-6f" d="M 1959 3097 
Q 1497 3097 1228 2736 
Q 959 2375 959 1747 
Q 959 1119 1226 758 
Q 1494 397 1959 397 
Q 2419 397 2687 759 
Q 2956 1122 2956 1747 
Q 2956 2369 2687 2733 
Q 2419 3097 1959 3097 
z
M 1959 3584 
Q 2709 3584 3137 3096 
Q 3566 2609 3566 1747 
Q 3566 888 3137 398 
Q 2709 -91 1959 -91 
Q 1206 -91 779 398 
Q 353 888 353 1747 
Q 353 2609 779 3096 
Q 1206 3584 1959 3584 
z
" transform="scale(0.015625)"/>
       <path id="DejaVuSans-72" d="M 2631 2963 
Q 2534 3019 2420 3045 
Q 2306 3072 2169 3072 
Q 1681 3072 1420 2755 
Q 1159 2438 1159 1844 
L 1159 0 
L 581 0 
L 581 3500 
L 1159 3500 
L 1159 2956 
Q 1341 3275 1631 3429 
Q 1922 3584 2338 3584 
Q 2397 3584 2469 3576 
Q 2541 3569 2628 3553 
L 2631 2963 
z
" transform="scale(0.015625)"/>
       <path id="DejaVuSans-64" d="M 2906 2969 
L 2906 4863 
L 3481 4863 
L 3481 0 
L 2906 0 
L 2906 525 
Q 2725 213 2448 61 
Q 2172 -91 1784 -91 
Q 1150 -91 751 415 
Q 353 922 353 1747 
Q 353 2572 751 3078 
Q 1150 3584 1784 3584 
Q 2172 3584 2448 3432 
Q 2725 3281 2906 2969 
z
M 947 1747 
Q 947 1113 1208 752 
Q 1469 391 1925 391 
Q 2381 391 2643 752 
Q 2906 1113 2906 1747 
Q 2906 2381 2643 2742 
Q 2381 3103 1925 3103 
Q 1469 3103 1208 2742 
Q 947 2381 947 1747 
z
" transform="scale(0.015625)"/>
       <path id="DejaVuSans-69" d="M 603 3500 
L 1178 3500 
L 1178 0 
L 603 0 
L 603 3500 
z
M 603 4863 
L 1178 4863 
L 1178 4134 
L 603 4134 
L 603 4863 
z
" transform="scale(0.015625)"/>
       <path id="DejaVuSans-6e" d="M 3513 2113 
L 3513 0 
L 2938 0 
L 2938 2094 
Q 2938 2591 2744 2837 
Q 2550 3084 2163 3084 
Q 1697 3084 1428 2787 
Q 1159 2491 1159 1978 
L 1159 0 
L 581 0 
L 581 3500 
L 1159 3500 
L 1159 2956 
Q 1366 3272 1645 3428 
Q 1925 3584 2291 3584 
Q 2894 3584 3203 3211 
Q 3513 2838 3513 2113 
z
" transform="scale(0.015625)"/>
       <path id="DejaVuSans-61" d="M 2194 1759 
Q 1497 1759 1228 1600 
Q 959 1441 959 1056 
Q 959 750 1161 570 
Q 1363 391 1709 391 
Q 2188 391 2477 730 
Q 2766 1069 2766 1631 
L 2766 1759 
L 2194 1759 
z
M 3341 1997 
L 3341 0 
L 2766 0 
L 2766 531 
Q 2569 213 2275 61 
Q 1981 -91 1556 -91 
Q 1019 -91 701 211 
Q 384 513 384 1019 
Q 384 1609 779 1909 
Q 1175 2209 1959 2209 
L 2766 2209 
L 2766 2266 
Q 2766 2663 2505 2880 
Q 2244 3097 1772 3097 
Q 1472 3097 1187 3025 
Q 903 2953 641 2809 
L 641 3341 
Q 956 3463 1253 3523 
Q 1550 3584 1831 3584 
Q 2591 3584 2966 3190 
Q 3341 2797 3341 1997 
z
" transform="scale(0.015625)"/>
       <path id="DejaVuSans-74" d="M 1172 4494 
L 1172 3500 
L 2356 3500 
L 2356 3053 
L 1172 3053 
L 1172 1153 
Q 1172 725 1289 603 
Q 1406 481 1766 481 
L 2356 481 
L 2356 0 
L 1766 0 
Q 1100 0 847 248 
Q 594 497 594 1153 
L 594 3053 
L 172 3053 
L 172 3500 
L 594 3500 
L 594 4494 
L 1172 4494 
z
" transform="scale(0.015625)"/>
       <path id="DejaVuSans-65" d="M 3597 1894 
L 3597 1613 
L 953 1613 
Q 991 1019 1311 708 
Q 1631 397 2203 397 
Q 2534 397 2845 478 
Q 3156 559 3463 722 
L 3463 178 
Q 3153 47 2828 -22 
Q 2503 -91 2169 -91 
Q 1331 -91 842 396 
Q 353 884 353 1716 
Q 353 2575 817 3079 
Q 1281 3584 2069 3584 
Q 2775 3584 3186 3129 
Q 3597 2675 3597 1894 
z
M 3022 2063 
Q 3016 2534 2758 2815 
Q 2500 3097 2075 3097 
Q 1594 3097 1305 2825 
Q 1016 2553 972 2059 
L 3022 2063 
z
" transform="scale(0.015625)"/>
       <path id="DejaVuSans-5b" d="M 550 4863 
L 1875 4863 
L 1875 4416 
L 1125 4416 
L 1125 -397 
L 1875 -397 
L 1875 -844 
L 550 -844 
L 550 4863 
z
" transform="scale(0.015625)"/>
       <path id="DejaVuSans-Oblique-3bc" d="M -84 -1331 
L 856 3500 
L 1434 3500 
L 1009 1322 
Q 997 1256 987 1175 
Q 978 1094 978 1013 
Q 978 722 1161 565 
Q 1344 409 1684 409 
Q 2147 409 2431 671 
Q 2716 934 2816 1459 
L 3213 3500 
L 3788 3500 
L 3266 809 
Q 3253 750 3248 706 
Q 3244 663 3244 628 
Q 3244 531 3283 486 
Q 3322 441 3406 441 
Q 3438 441 3492 456 
Q 3547 472 3647 513 
L 3559 50 
Q 3422 -19 3297 -55 
Q 3172 -91 3053 -91 
Q 2847 -91 2730 40 
Q 2613 172 2613 403 
Q 2438 153 2195 31 
Q 1953 -91 1625 -91 
Q 1334 -91 1117 43 
Q 900 178 831 397 
L 494 -1331 
L -84 -1331 
z
" transform="scale(0.015625)"/>
       <path id="DejaVuSans-6d" d="M 3328 2828 
Q 3544 3216 3844 3400 
Q 4144 3584 4550 3584 
Q 5097 3584 5394 3201 
Q 5691 2819 5691 2113 
L 5691 0 
L 5113 0 
L 5113 2094 
Q 5113 2597 4934 2840 
Q 4756 3084 4391 3084 
Q 3944 3084 3684 2787 
Q 3425 2491 3425 1978 
L 3425 0 
L 2847 0 
L 2847 2094 
Q 2847 2600 2669 2842 
Q 2491 3084 2119 3084 
Q 1678 3084 1418 2786 
Q 1159 2488 1159 1978 
L 1159 0 
L 581 0 
L 581 3500 
L 1159 3500 
L 1159 2956 
Q 1356 3278 1631 3431 
Q 1906 3584 2284 3584 
Q 2666 3584 2933 3390 
Q 3200 3197 3328 2828 
z
" transform="scale(0.015625)"/>
       <path id="DejaVuSans-5d" d="M 1947 4863 
L 1947 -844 
L 622 -844 
L 622 -397 
L 1369 -397 
L 1369 4416 
L 622 4416 
L 622 4863 
L 1947 4863 
z
" transform="scale(0.015625)"/>
      </defs>
      <use xlink:href="#DejaVuSans-58" transform="translate(0 0.015625)"/>
      <use xlink:href="#DejaVuSans-20" transform="translate(68.505859 0.015625)"/>
      <use xlink:href="#DejaVuSans-63" transform="translate(100.292969 0.015625)"/>
      <use xlink:href="#DejaVuSans-6f" transform="translate(155.273438 0.015625)"/>
      <use xlink:href="#DejaVuSans-6f" transform="translate(216.455078 0.015625)"/>
      <use xlink:href="#DejaVuSans-72" transform="translate(277.636719 0.015625)"/>
      <use xlink:href="#DejaVuSans-64" transform="translate(318.75 0.015625)"/>
      <use xlink:href="#DejaVuSans-69" transform="translate(382.226562 0.015625)"/>
      <use xlink:href="#DejaVuSans-6e" transform="translate(410.009766 0.015625)"/>
      <use xlink:href="#DejaVuSans-61" transform="translate(473.388672 0.015625)"/>
      <use xlink:href="#DejaVuSans-74" transform="translate(534.667969 0.015625)"/>
      <use xlink:href="#DejaVuSans-65" transform="translate(573.876953 0.015625)"/>
      <use xlink:href="#DejaVuSans-20" transform="translate(635.400391 0.015625)"/>
      <use xlink:href="#DejaVuSans-5b" transform="translate(667.1875 0.015625)"/>
      <use xlink:href="#DejaVuSans-Oblique-3bc" transform="translate(706.201172 0.015625)"/>
      <use xlink:href="#DejaVuSans-6d" transform="translate(769.824219 0.015625)"/>
      <use xlink:href="#DejaVuSans-5d" transform="translate(867.236328 0.015625)"/>
     </g>
    </g>
   </g>
   <g id="matplotlib.axis_2">
    <g id="ytick_1">
     <g id="line2d_19">
      <path d="M 54.7475 444.448513 
L 612.7475 444.448513 
" clip-path="url(#p92cf4af231)" style="fill: none; stroke-dasharray: 2.96,1.28; stroke-dashoffset: 0; stroke: #b0b0b0; stroke-opacity: 0.6; stroke-width: 0.8"/>
     </g>
     <g id="line2d_20">
      <defs>
       <path id="m94c6efb4f0" d="M 0 0 
L -3.5 0 
" style="stroke: #000000; stroke-width: 0.8"/>
      </defs>
      <g>
       <use xlink:href="#m94c6efb4f0" x="54.7475" y="444.448513" style="stroke: #000000; stroke-width: 0.8"/>
      </g>
     </g>
     <g id="text_11">
      <!-- 0 -->
      <g transform="translate(41.385 448.247732) scale(0.1 -0.1)">
       <use xlink:href="#DejaVuSans-30"/>
      </g>
     </g>
    </g>
    <g id="ytick_2">
     <g id="line2d_21">
      <path d="M 54.7475 390.87547 
L 612.7475 390.87547 
" clip-path="url(#p92cf4af231)" style="fill: none; stroke-dasharray: 2.96,1.28; stroke-dashoffset: 0; stroke: #b0b0b0; stroke-opacity: 0.6; stroke-width: 0.8"/>
     </g>
     <g id="line2d_22">
      <g>
       <use xlink:href="#m94c6efb4f0" x="54.7475" y="390.87547" style="stroke: #000000; stroke-width: 0.8"/>
      </g>
     </g>
     <g id="text_12">
      <!-- 20 -->
      <g transform="translate(35.0225 394.674688) scale(0.1 -0.1)">
       <use xlink:href="#DejaVuSans-32"/>
       <use xlink:href="#DejaVuSans-30" transform="translate(63.623047 0)"/>
      </g>
     </g>
    </g>
    <g id="ytick_3">
     <g id="line2d_23">
      <path d="M 54.7475 337.302426 
L 612.7475 337.302426 
" clip-path="url(#p92cf4af231)" style="fill: none; stroke-dasharray: 2.96,1.28; stroke-dashoffset: 0; stroke: #b0b0b0; stroke-opacity: 0.6; stroke-width: 0.8"/>
     </g>
     <g id="line2d_24">
      <g>
       <use xlink:href="#m94c6efb4f0" x="54.7475" y="337.302426" style="stroke: #000000; stroke-width: 0.8"/>
      </g>
     </g>
     <g id="text_13">
      <!-- 40 -->
      <g transform="translate(35.0225 341.101645) scale(0.1 -0.1)">
       <defs>
        <path id="DejaVuSans-34" d="M 2419 4116 
L 825 1625 
L 2419 1625 
L 2419 4116 
z
M 2253 4666 
L 3047 4666 
L 3047 1625 
L 3713 1625 
L 3713 1100 
L 3047 1100 
L 3047 0 
L 2419 0 
L 2419 1100 
L 313 1100 
L 313 1709 
L 2253 4666 
z
" transform="scale(0.015625)"/>
       </defs>
       <use xlink:href="#DejaVuSans-34"/>
       <use xlink:href="#DejaVuSans-30" transform="translate(63.623047 0)"/>
      </g>
     </g>
    </g>
    <g id="ytick_4">
     <g id="line2d_25">
      <path d="M 54.7475 283.729383 
L 612.7475 283.729383 
" clip-path="url(#p92cf4af231)" style="fill: none; stroke-dasharray: 2.96,1.28; stroke-dashoffset: 0; stroke: #b0b0b0; stroke-opacity: 0.6; stroke-width: 0.8"/>
     </g>
     <g id="line2d_26">
      <g>
       <use xlink:href="#m94c6efb4f0" x="54.7475" y="283.729383" style="stroke: #000000; stroke-width: 0.8"/>
      </g>
     </g>
     <g id="text_14">
      <!-- 60 -->
      <g transform="translate(35.0225 287.528602) scale(0.1 -0.1)">
       <defs>
        <path id="DejaVuSans-36" d="M 2113 2584 
Q 1688 2584 1439 2293 
Q 1191 2003 1191 1497 
Q 1191 994 1439 701 
Q 1688 409 2113 409 
Q 2538 409 2786 701 
Q 3034 994 3034 1497 
Q 3034 2003 2786 2293 
Q 2538 2584 2113 2584 
z
M 3366 4563 
L 3366 3988 
Q 3128 4100 2886 4159 
Q 2644 4219 2406 4219 
Q 1781 4219 1451 3797 
Q 1122 3375 1075 2522 
Q 1259 2794 1537 2939 
Q 1816 3084 2150 3084 
Q 2853 3084 3261 2657 
Q 3669 2231 3669 1497 
Q 3669 778 3244 343 
Q 2819 -91 2113 -91 
Q 1303 -91 875 529 
Q 447 1150 447 2328 
Q 447 3434 972 4092 
Q 1497 4750 2381 4750 
Q 2619 4750 2861 4703 
Q 3103 4656 3366 4563 
z
" transform="scale(0.015625)"/>
       </defs>
       <use xlink:href="#DejaVuSans-36"/>
       <use xlink:href="#DejaVuSans-30" transform="translate(63.623047 0)"/>
      </g>
     </g>
    </g>
    <g id="ytick_5">
     <g id="line2d_27">
      <path d="M 54.7475 230.156339 
L 612.7475 230.156339 
" clip-path="url(#p92cf4af231)" style="fill: none; stroke-dasharray: 2.96,1.28; stroke-dashoffset: 0; stroke: #b0b0b0; stroke-opacity: 0.6; stroke-width: 0.8"/>
     </g>
     <g id="line2d_28">
      <g>
       <use xlink:href="#m94c6efb4f0" x="54.7475" y="230.156339" style="stroke: #000000; stroke-width: 0.8"/>
      </g>
     </g>
     <g id="text_15">
      <!-- 80 -->
      <g transform="translate(35.0225 233.955558) scale(0.1 -0.1)">
       <defs>
        <path id="DejaVuSans-38" d="M 2034 2216 
Q 1584 2216 1326 1975 
Q 1069 1734 1069 1313 
Q 1069 891 1326 650 
Q 1584 409 2034 409 
Q 2484 409 2743 651 
Q 3003 894 3003 1313 
Q 3003 1734 2745 1975 
Q 2488 2216 2034 2216 
z
M 1403 2484 
Q 997 2584 770 2862 
Q 544 3141 544 3541 
Q 544 4100 942 4425 
Q 1341 4750 2034 4750 
Q 2731 4750 3128 4425 
Q 3525 4100 3525 3541 
Q 3525 3141 3298 2862 
Q 3072 2584 2669 2484 
Q 3125 2378 3379 2068 
Q 3634 1759 3634 1313 
Q 3634 634 3220 271 
Q 2806 -91 2034 -91 
Q 1263 -91 848 271 
Q 434 634 434 1313 
Q 434 1759 690 2068 
Q 947 2378 1403 2484 
z
M 1172 3481 
Q 1172 3119 1398 2916 
Q 1625 2713 2034 2713 
Q 2441 2713 2670 2916 
Q 2900 3119 2900 3481 
Q 2900 3844 2670 4047 
Q 2441 4250 2034 4250 
Q 1625 4250 1398 4047 
Q 1172 3844 1172 3481 
z
" transform="scale(0.015625)"/>
       </defs>
       <use xlink:href="#DejaVuSans-38"/>
       <use xlink:href="#DejaVuSans-30" transform="translate(63.623047 0)"/>
      </g>
     </g>
    </g>
    <g id="ytick_6">
     <g id="line2d_29">
      <path d="M 54.7475 176.583296 
L 612.7475 176.583296 
" clip-path="url(#p92cf4af231)" style="fill: none; stroke-dasharray: 2.96,1.28; stroke-dashoffset: 0; stroke: #b0b0b0; stroke-opacity: 0.6; stroke-width: 0.8"/>
     </g>
     <g id="line2d_30">
      <g>
       <use xlink:href="#m94c6efb4f0" x="54.7475" y="176.583296" style="stroke: #000000; stroke-width: 0.8"/>
      </g>
     </g>
     <g id="text_16">
      <!-- 100 -->
      <g transform="translate(28.66 180.382515) scale(0.1 -0.1)">
       <use xlink:href="#DejaVuSans-31"/>
       <use xlink:href="#DejaVuSans-30" transform="translate(63.623047 0)"/>
       <use xlink:href="#DejaVuSans-30" transform="translate(127.246094 0)"/>
      </g>
     </g>
    </g>
    <g id="ytick_7">
     <g id="line2d_31">
      <path d="M 54.7475 123.010252 
L 612.7475 123.010252 
" clip-path="url(#p92cf4af231)" style="fill: none; stroke-dasharray: 2.96,1.28; stroke-dashoffset: 0; stroke: #b0b0b0; stroke-opacity: 0.6; stroke-width: 0.8"/>
     </g>
     <g id="line2d_32">
      <g>
       <use xlink:href="#m94c6efb4f0" x="54.7475" y="123.010252" style="stroke: #000000; stroke-width: 0.8"/>
      </g>
     </g>
     <g id="text_17">
      <!-- 120 -->
      <g transform="translate(28.66 126.809471) scale(0.1 -0.1)">
       <use xlink:href="#DejaVuSans-31"/>
       <use xlink:href="#DejaVuSans-32" transform="translate(63.623047 0)"/>
       <use xlink:href="#DejaVuSans-30" transform="translate(127.246094 0)"/>
      </g>
     </g>
    </g>
    <g id="ytick_8">
     <g id="line2d_33">
      <path d="M 54.7475 69.437209 
L 612.7475 69.437209 
" clip-path="url(#p92cf4af231)" style="fill: none; stroke-dasharray: 2.96,1.28; stroke-dashoffset: 0; stroke: #b0b0b0; stroke-opacity: 0.6; stroke-width: 0.8"/>
     </g>
     <g id="line2d_34">
      <g>
       <use xlink:href="#m94c6efb4f0" x="54.7475" y="69.437209" style="stroke: #000000; stroke-width: 0.8"/>
      </g>
     </g>
     <g id="text_18">
      <!-- 140 -->
      <g transform="translate(28.66 73.236428) scale(0.1 -0.1)">
       <use xlink:href="#DejaVuSans-31"/>
       <use xlink:href="#DejaVuSans-34" transform="translate(63.623047 0)"/>
       <use xlink:href="#DejaVuSans-30" transform="translate(127.246094 0)"/>
      </g>
     </g>
    </g>
    <g id="text_19">
     <!-- Y coordinate [$\mu$m] -->
     <g transform="translate(20.88 329.547187) rotate(-90) scale(0.18 -0.18)">
      <defs>
       <path id="DejaVuSans-59" d="M -13 4666 
L 666 4666 
L 1959 2747 
L 3244 4666 
L 3922 4666 
L 2272 2222 
L 2272 0 
L 1638 0 
L 1638 2222 
L -13 4666 
z
" transform="scale(0.015625)"/>
      </defs>
      <use xlink:href="#DejaVuSans-59" transform="translate(0 0.015625)"/>
      <use xlink:href="#DejaVuSans-20" transform="translate(61.083984 0.015625)"/>
      <use xlink:href="#DejaVuSans-63" transform="translate(92.871094 0.015625)"/>
      <use xlink:href="#DejaVuSans-6f" transform="translate(147.851562 0.015625)"/>
      <use xlink:href="#DejaVuSans-6f" transform="translate(209.033203 0.015625)"/>
      <use xlink:href="#DejaVuSans-72" transform="translate(270.214844 0.015625)"/>
      <use xlink:href="#DejaVuSans-64" transform="translate(311.328125 0.015625)"/>
      <use xlink:href="#DejaVuSans-69" transform="translate(374.804688 0.015625)"/>
      <use xlink:href="#DejaVuSans-6e" transform="translate(402.587891 0.015625)"/>
      <use xlink:href="#DejaVuSans-61" transform="translate(465.966797 0.015625)"/>
      <use xlink:href="#DejaVuSans-74" transform="translate(527.246094 0.015625)"/>
      <use xlink:href="#DejaVuSans-65" transform="translate(566.455078 0.015625)"/>
      <use xlink:href="#DejaVuSans-20" transform="translate(627.978516 0.015625)"/>
      <use xlink:href="#DejaVuSans-5b" transform="translate(659.765625 0.015625)"/>
      <use xlink:href="#DejaVuSans-Oblique-3bc" transform="translate(698.779297 0.015625)"/>
      <use xlink:href="#DejaVuSans-6d" transform="translate(762.402344 0.015625)"/>
      <use xlink:href="#DejaVuSans-5d" transform="translate(859.814453 0.015625)"/>
     </g>
    </g>
   </g>
   <g id="line2d_35">
    <path d="M 411.091465 386.361545 
L 380.286965 386.361545 
" clip-path="url(#p92cf4af231)" style="fill: none; stroke: #d62728; stroke-width: 4; stroke-linecap: square"/>
   </g>
   <g id="line2d_36">
    <path d="M 368.010515 352.632275 
L 337.206015 352.632275 
" clip-path="url(#p92cf4af231)" style="fill: none; stroke: #d62728; stroke-width: 4; stroke-linecap: square"/>
   </g>
   <g id="line2d_37">
    <path d="M 324.929564 318.903005 
L 294.125064 318.903005 
" clip-path="url(#p92cf4af231)" style="fill: none; stroke: #d62728; stroke-width: 4; stroke-linecap: square"/>
   </g>
   <g id="line2d_38">
    <path d="M 281.848614 285.173736 
L 251.044114 285.173736 
" clip-path="url(#p92cf4af231)" style="fill: none; stroke: #d62728; stroke-width: 4; stroke-linecap: square"/>
   </g>
   <g id="line2d_39">
    <path d="M 412.877938 328.274576 
L 382.073438 328.274576 
" clip-path="url(#p92cf4af231)" style="fill: none; stroke: #d62728; stroke-width: 4; stroke-linecap: square"/>
   </g>
   <g id="line2d_40">
    <path d="M 369.796988 294.545307 
L 338.992488 294.545307 
" clip-path="url(#p92cf4af231)" style="fill: none; stroke: #d62728; stroke-width: 4; stroke-linecap: square"/>
   </g>
   <g id="line2d_41">
    <path d="M 326.716038 260.816037 
L 295.911538 260.816037 
" clip-path="url(#p92cf4af231)" style="fill: none; stroke: #d62728; stroke-width: 4; stroke-linecap: square"/>
   </g>
   <g id="line2d_42">
    <path d="M 283.635088 227.086767 
L 252.830588 227.086767 
" clip-path="url(#p92cf4af231)" style="fill: none; stroke: #d62728; stroke-width: 4; stroke-linecap: square"/>
   </g>
   <g id="line2d_43">
    <path d="M 414.664412 270.187608 
L 383.859912 270.187608 
" clip-path="url(#p92cf4af231)" style="fill: none; stroke: #d62728; stroke-width: 4; stroke-linecap: square"/>
   </g>
   <g id="line2d_44">
    <path d="M 371.583462 236.458338 
L 340.778962 236.458338 
" clip-path="url(#p92cf4af231)" style="fill: none; stroke: #d62728; stroke-width: 4; stroke-linecap: square"/>
   </g>
   <g id="line2d_45">
    <path d="M 328.502512 202.729068 
L 297.698012 202.729068 
" clip-path="url(#p92cf4af231)" style="fill: none; stroke: #d62728; stroke-width: 4; stroke-linecap: square"/>
   </g>
   <g id="line2d_46">
    <path d="M 285.421562 168.999799 
L 254.617062 168.999799 
" clip-path="url(#p92cf4af231)" style="fill: none; stroke: #d62728; stroke-width: 4; stroke-linecap: square"/>
   </g>
   <g id="line2d_47">
    <path d="M 416.450886 212.100639 
L 385.646386 212.100639 
" clip-path="url(#p92cf4af231)" style="fill: none; stroke: #d62728; stroke-width: 4; stroke-linecap: square"/>
   </g>
   <g id="line2d_48">
    <path d="M 373.369936 178.37137 
L 342.565436 178.37137 
" clip-path="url(#p92cf4af231)" style="fill: none; stroke: #d62728; stroke-width: 4; stroke-linecap: square"/>
   </g>
   <g id="line2d_49">
    <path d="M 330.288985 144.6421 
L 299.484485 144.6421 
" clip-path="url(#p92cf4af231)" style="fill: none; stroke: #d62728; stroke-width: 4; stroke-linecap: square"/>
   </g>
   <g id="line2d_50">
    <path d="M 287.208035 110.91283 
L 256.403535 110.91283 
" clip-path="url(#p92cf4af231)" style="fill: none; stroke: #d62728; stroke-width: 4; stroke-linecap: square"/>
   </g>
   <g id="line2d_51">
    <path d="M 411.091465 386.361545 
L 423.367915 420.090814 
" clip-path="url(#p92cf4af231)" style="fill: none; stroke: #1f77b4; stroke-width: 4; stroke-linecap: square"/>
   </g>
   <g id="line2d_52">
    <path d="M 368.010515 352.632275 
L 380.286965 386.361545 
" clip-path="url(#p92cf4af231)" style="fill: none; stroke: #1f77b4; stroke-width: 4; stroke-linecap: square"/>
   </g>
   <g id="line2d_53">
    <path d="M 324.929564 318.903005 
L 337.206015 352.632275 
" clip-path="url(#p92cf4af231)" style="fill: none; stroke: #1f77b4; stroke-width: 4; stroke-linecap: square"/>
   </g>
   <g id="line2d_54">
    <path d="M 281.848614 285.173736 
L 294.125064 318.903005 
" clip-path="url(#p92cf4af231)" style="fill: none; stroke: #1f77b4; stroke-width: 4; stroke-linecap: square"/>
   </g>
   <g id="line2d_55">
    <path d="M 238.767664 251.444466 
L 251.044114 285.173736 
" clip-path="url(#p92cf4af231)" style="fill: none; stroke: #1f77b4; stroke-width: 4; stroke-linecap: square"/>
   </g>
   <g id="line2d_56">
    <path d="M 412.877938 328.274576 
L 425.154389 362.003846 
" clip-path="url(#p92cf4af231)" style="fill: none; stroke: #1f77b4; stroke-width: 4; stroke-linecap: square"/>
   </g>
   <g id="line2d_57">
    <path d="M 369.796988 294.545307 
L 382.073438 328.274576 
" clip-path="url(#p92cf4af231)" style="fill: none; stroke: #1f77b4; stroke-width: 4; stroke-linecap: square"/>
   </g>
   <g id="line2d_58">
    <path d="M 326.716038 260.816037 
L 338.992488 294.545307 
" clip-path="url(#p92cf4af231)" style="fill: none; stroke: #1f77b4; stroke-width: 4; stroke-linecap: square"/>
   </g>
   <g id="line2d_59">
    <path d="M 283.635088 227.086767 
L 295.911538 260.816037 
" clip-path="url(#p92cf4af231)" style="fill: none; stroke: #1f77b4; stroke-width: 4; stroke-linecap: square"/>
   </g>
   <g id="line2d_60">
    <path d="M 240.554138 193.357497 
L 252.830588 227.086767 
" clip-path="url(#p92cf4af231)" style="fill: none; stroke: #1f77b4; stroke-width: 4; stroke-linecap: square"/>
   </g>
   <g id="line2d_61">
    <path d="M 414.664412 270.187608 
L 426.940862 303.916878 
" clip-path="url(#p92cf4af231)" style="fill: none; stroke: #1f77b4; stroke-width: 4; stroke-linecap: square"/>
   </g>
   <g id="line2d_62">
    <path d="M 371.583462 236.458338 
L 383.859912 270.187608 
" clip-path="url(#p92cf4af231)" style="fill: none; stroke: #1f77b4; stroke-width: 4; stroke-linecap: square"/>
   </g>
   <g id="line2d_63">
    <path d="M 328.502512 202.729068 
L 340.778962 236.458338 
" clip-path="url(#p92cf4af231)" style="fill: none; stroke: #1f77b4; stroke-width: 4; stroke-linecap: square"/>
   </g>
   <g id="line2d_64">
    <path d="M 285.421562 168.999799 
L 297.698012 202.729068 
" clip-path="url(#p92cf4af231)" style="fill: none; stroke: #1f77b4; stroke-width: 4; stroke-linecap: square"/>
   </g>
   <g id="line2d_65">
    <path d="M 242.340611 135.270529 
L 254.617062 168.999799 
" clip-path="url(#p92cf4af231)" style="fill: none; stroke: #1f77b4; stroke-width: 4; stroke-linecap: square"/>
   </g>
   <g id="line2d_66">
    <path d="M 416.450886 212.100639 
L 428.727336 245.829909 
" clip-path="url(#p92cf4af231)" style="fill: none; stroke: #1f77b4; stroke-width: 4; stroke-linecap: square"/>
   </g>
   <g id="line2d_67">
    <path d="M 373.369936 178.37137 
L 385.646386 212.100639 
" clip-path="url(#p92cf4af231)" style="fill: none; stroke: #1f77b4; stroke-width: 4; stroke-linecap: square"/>
   </g>
   <g id="line2d_68">
    <path d="M 330.288985 144.6421 
L 342.565436 178.37137 
" clip-path="url(#p92cf4af231)" style="fill: none; stroke: #1f77b4; stroke-width: 4; stroke-linecap: square"/>
   </g>
   <g id="line2d_69">
    <path d="M 287.208035 110.91283 
L 299.484485 144.6421 
" clip-path="url(#p92cf4af231)" style="fill: none; stroke: #1f77b4; stroke-width: 4; stroke-linecap: square"/>
   </g>
   <g id="line2d_70">
    <path d="M 244.127085 77.183561 
L 256.403535 110.91283 
" clip-path="url(#p92cf4af231)" style="fill: none; stroke: #1f77b4; stroke-width: 4; stroke-linecap: square"/>
   </g>
   <g id="line2d_71">
    <path d="M 409.304991 444.448513 
L 423.367915 420.090814 
" clip-path="url(#p92cf4af231)" style="fill: none; stroke: #ff7f0e; stroke-width: 4; stroke-linecap: square"/>
   </g>
   <g id="line2d_72">
    <path d="M 366.224041 410.719243 
L 380.286965 386.361545 
" clip-path="url(#p92cf4af231)" style="fill: none; stroke: #ff7f0e; stroke-width: 4; stroke-linecap: square"/>
   </g>
   <g id="line2d_73">
    <path d="M 323.143091 376.989974 
L 337.206015 352.632275 
" clip-path="url(#p92cf4af231)" style="fill: none; stroke: #ff7f0e; stroke-width: 4; stroke-linecap: square"/>
   </g>
   <g id="line2d_74">
    <path d="M 280.06214 343.260704 
L 294.125064 318.903005 
" clip-path="url(#p92cf4af231)" style="fill: none; stroke: #ff7f0e; stroke-width: 4; stroke-linecap: square"/>
   </g>
   <g id="line2d_75">
    <path d="M 236.98119 309.531434 
L 251.044114 285.173736 
" clip-path="url(#p92cf4af231)" style="fill: none; stroke: #ff7f0e; stroke-width: 4; stroke-linecap: square"/>
   </g>
   <g id="line2d_76">
    <path d="M 411.091465 386.361545 
L 425.154389 362.003846 
" clip-path="url(#p92cf4af231)" style="fill: none; stroke: #ff7f0e; stroke-width: 4; stroke-linecap: square"/>
   </g>
   <g id="line2d_77">
    <path d="M 368.010515 352.632275 
L 382.073438 328.274576 
" clip-path="url(#p92cf4af231)" style="fill: none; stroke: #ff7f0e; stroke-width: 4; stroke-linecap: square"/>
   </g>
   <g id="line2d_78">
    <path d="M 324.929564 318.903005 
L 338.992488 294.545307 
" clip-path="url(#p92cf4af231)" style="fill: none; stroke: #ff7f0e; stroke-width: 4; stroke-linecap: square"/>
   </g>
   <g id="line2d_79">
    <path d="M 281.848614 285.173736 
L 295.911538 260.816037 
" clip-path="url(#p92cf4af231)" style="fill: none; stroke: #ff7f0e; stroke-width: 4; stroke-linecap: square"/>
   </g>
   <g id="line2d_80">
    <path d="M 238.767664 251.444466 
L 252.830588 227.086767 
" clip-path="url(#p92cf4af231)" style="fill: none; stroke: #ff7f0e; stroke-width: 4; stroke-linecap: square"/>
   </g>
   <g id="line2d_81">
    <path d="M 412.877938 328.274576 
L 426.940862 303.916878 
" clip-path="url(#p92cf4af231)" style="fill: none; stroke: #ff7f0e; stroke-width: 4; stroke-linecap: square"/>
   </g>
   <g id="line2d_82">
    <path d="M 369.796988 294.545307 
L 383.859912 270.187608 
" clip-path="url(#p92cf4af231)" style="fill: none; stroke: #ff7f0e; stroke-width: 4; stroke-linecap: square"/>
   </g>
   <g id="line2d_83">
    <path d="M 326.716038 260.816037 
L 340.778962 236.458338 
" clip-path="url(#p92cf4af231)" style="fill: none; stroke: #ff7f0e; stroke-width: 4; stroke-linecap: square"/>
   </g>
   <g id="line2d_84">
    <path d="M 283.635088 227.086767 
L 297.698012 202.729068 
" clip-path="url(#p92cf4af231)" style="fill: none; stroke: #ff7f0e; stroke-width: 4; stroke-linecap: square"/>
   </g>
   <g id="line2d_85">
    <path d="M 240.554138 193.357497 
L 254.617062 168.999799 
" clip-path="url(#p92cf4af231)" style="fill: none; stroke: #ff7f0e; stroke-width: 4; stroke-linecap: square"/>
   </g>
   <g id="line2d_86">
    <path d="M 414.664412 270.187608 
L 428.727336 245.829909 
" clip-path="url(#p92cf4af231)" style="fill: none; stroke: #ff7f0e; stroke-width: 4; stroke-linecap: square"/>
   </g>
   <g id="line2d_87">
    <path d="M 371.583462 236.458338 
L 385.646386 212.100639 
" clip-path="url(#p92cf4af231)" style="fill: none; stroke: #ff7f0e; stroke-width: 4; stroke-linecap: square"/>
   </g>
   <g id="line2d_88">
    <path d="M 328.502512 202.729068 
L 342.565436 178.37137 
" clip-path="url(#p92cf4af231)" style="fill: none; stroke: #ff7f0e; stroke-width: 4; stroke-linecap: square"/>
   </g>
   <g id="line2d_89">
    <path d="M 285.421562 168.999799 
L 299.484485 144.6421 
" clip-path="url(#p92cf4af231)" style="fill: none; stroke: #ff7f0e; stroke-width: 4; stroke-linecap: square"/>
   </g>
   <g id="line2d_90">
    <path d="M 242.340611 135.270529 
L 256.403535 110.91283 
" clip-path="url(#p92cf4af231)" style="fill: none; stroke: #ff7f0e; stroke-width: 4; stroke-linecap: square"/>
   </g>
   <g id="line2d_91">
    <path d="M 416.450886 212.100639 
L 430.51381 187.742941 
" clip-path="url(#p92cf4af231)" style="fill: none; stroke: #ff7f0e; stroke-width: 4; stroke-linecap: square"/>
   </g>
   <g id="line2d_92">
    <path d="M 373.369936 178.37137 
L 387.43286 154.013671 
" clip-path="url(#p92cf4af231)" style="fill: none; stroke: #ff7f0e; stroke-width: 4; stroke-linecap: square"/>
   </g>
   <g id="line2d_93">
    <path d="M 330.288985 144.6421 
L 344.351909 120.284401 
" clip-path="url(#p92cf4af231)" style="fill: none; stroke: #ff7f0e; stroke-width: 4; stroke-linecap: square"/>
   </g>
   <g id="line2d_94">
    <path d="M 287.208035 110.91283 
L 301.270959 86.555132 
" clip-path="url(#p92cf4af231)" style="fill: none; stroke: #ff7f0e; stroke-width: 4; stroke-linecap: square"/>
   </g>
   <g id="line2d_95">
    <path d="M 244.127085 77.183561 
L 258.190009 52.825862 
" clip-path="url(#p92cf4af231)" style="fill: none; stroke: #ff7f0e; stroke-width: 4; stroke-linecap: square"/>
   </g>
   <g id="patch_23">
    <path d="M 54.7475 470.397187 
L 54.7475 26.877187 
" style="fill: none; stroke: #000000; stroke-width: 0.8; stroke-linejoin: miter; stroke-linecap: square"/>
   </g>
   <g id="patch_24">
    <path d="M 612.7475 470.397187 
L 612.7475 26.877187 
" style="fill: none; stroke: #000000; stroke-width: 0.8; stroke-linejoin: miter; stroke-linecap: square"/>
   </g>
   <g id="patch_25">
    <path d="M 54.7475 470.397187 
L 612.7475 470.397187 
" style="fill: none; stroke: #000000; stroke-width: 0.8; stroke-linejoin: miter; stroke-linecap: square"/>
   </g>
   <g id="patch_26">
    <path d="M 54.7475 26.877187 
L 612.7475 26.877187 
" style="fill: none; stroke: #000000; stroke-width: 0.8; stroke-linejoin: miter; stroke-linecap: square"/>
   </g>
   <g id="text_20">
    <!-- L0 -->
    <g style="fill: #1f77b4" transform="translate(392.056716 364.405106) scale(0.09 -0.09)">
     <defs>
      <path id="DejaVuSans-Bold-4c" d="M 588 4666 
L 1791 4666 
L 1791 909 
L 3903 909 
L 3903 0 
L 588 0 
L 588 4666 
z
" transform="scale(0.015625)"/>
      <path id="DejaVuSans-Bold-30" d="M 2944 2338 
Q 2944 3213 2780 3570 
Q 2616 3928 2228 3928 
Q 1841 3928 1675 3570 
Q 1509 3213 1509 2338 
Q 1509 1453 1675 1090 
Q 1841 728 2228 728 
Q 2613 728 2778 1090 
Q 2944 1453 2944 2338 
z
M 4147 2328 
Q 4147 1169 3647 539 
Q 3147 -91 2228 -91 
Q 1306 -91 806 539 
Q 306 1169 306 2328 
Q 306 3491 806 4120 
Q 1306 4750 2228 4750 
Q 3147 4750 3647 4120 
Q 4147 3491 4147 2328 
z
" transform="scale(0.015625)"/>
     </defs>
     <use xlink:href="#DejaVuSans-Bold-4c"/>
     <use xlink:href="#DejaVuSans-Bold-30" transform="translate(63.720703 0)"/>
    </g>
   </g>
   <g id="text_21">
    <!-- L1 -->
    <g style="fill: #aec7e8" transform="translate(348.975766 330.675836) scale(0.09 -0.09)">
     <defs>
      <path id="DejaVuSans-Bold-31" d="M 750 831 
L 1813 831 
L 1813 3847 
L 722 3622 
L 722 4441 
L 1806 4666 
L 2950 4666 
L 2950 831 
L 4013 831 
L 4013 0 
L 750 0 
L 750 831 
z
" transform="scale(0.015625)"/>
     </defs>
     <use xlink:href="#DejaVuSans-Bold-4c"/>
     <use xlink:href="#DejaVuSans-Bold-31" transform="translate(63.720703 0)"/>
    </g>
   </g>
   <g id="text_22">
    <!-- L2 -->
    <g style="fill: #ff7f0e" transform="translate(305.894815 296.946566) scale(0.09 -0.09)">
     <defs>
      <path id="DejaVuSans-Bold-32" d="M 1844 884 
L 3897 884 
L 3897 0 
L 506 0 
L 506 884 
L 2209 2388 
Q 2438 2594 2547 2791 
Q 2656 2988 2656 3200 
Q 2656 3528 2436 3728 
Q 2216 3928 1850 3928 
Q 1569 3928 1234 3808 
Q 900 3688 519 3450 
L 519 4475 
Q 925 4609 1322 4679 
Q 1719 4750 2100 4750 
Q 2938 4750 3402 4381 
Q 3866 4013 3866 3353 
Q 3866 2972 3669 2642 
Q 3472 2313 2841 1759 
L 1844 884 
z
" transform="scale(0.015625)"/>
     </defs>
     <use xlink:href="#DejaVuSans-Bold-4c"/>
     <use xlink:href="#DejaVuSans-Bold-32" transform="translate(63.720703 0)"/>
    </g>
   </g>
   <g id="text_23">
    <!-- L3 -->
    <g style="fill: #ffbb78" transform="translate(262.813865 263.217297) scale(0.09 -0.09)">
     <defs>
      <path id="DejaVuSans-Bold-33" d="M 2981 2516 
Q 3453 2394 3698 2092 
Q 3944 1791 3944 1325 
Q 3944 631 3412 270 
Q 2881 -91 1863 -91 
Q 1503 -91 1142 -33 
Q 781 25 428 141 
L 428 1069 
Q 766 900 1098 814 
Q 1431 728 1753 728 
Q 2231 728 2486 893 
Q 2741 1059 2741 1369 
Q 2741 1688 2480 1852 
Q 2219 2016 1709 2016 
L 1228 2016 
L 1228 2791 
L 1734 2791 
Q 2188 2791 2409 2933 
Q 2631 3075 2631 3366 
Q 2631 3634 2415 3781 
Q 2200 3928 1806 3928 
Q 1516 3928 1219 3862 
Q 922 3797 628 3669 
L 628 4550 
Q 984 4650 1334 4700 
Q 1684 4750 2022 4750 
Q 2931 4750 3382 4451 
Q 3834 4153 3834 3553 
Q 3834 3144 3618 2883 
Q 3403 2622 2981 2516 
z
" transform="scale(0.015625)"/>
     </defs>
     <use xlink:href="#DejaVuSans-Bold-4c"/>
     <use xlink:href="#DejaVuSans-Bold-33" transform="translate(63.720703 0)"/>
    </g>
   </g>
   <g id="text_24">
    <!-- L4 -->
    <g style="fill: #2ca02c" transform="translate(390.584092 315.447056) scale(0.09 -0.09)">
     <defs>
      <path id="DejaVuSans-Bold-34" d="M 2356 3675 
L 1038 1722 
L 2356 1722 
L 2356 3675 
z
M 2156 4666 
L 3494 4666 
L 3494 1722 
L 4159 1722 
L 4159 850 
L 3494 850 
L 3494 0 
L 2356 0 
L 2356 850 
L 288 850 
L 288 1881 
L 2156 4666 
z
" transform="scale(0.015625)"/>
     </defs>
     <use xlink:href="#DejaVuSans-Bold-4c"/>
     <use xlink:href="#DejaVuSans-Bold-34" transform="translate(63.720703 0)"/>
    </g>
   </g>
   <g id="text_25">
    <!-- L5 -->
    <g style="fill: #98df8a" transform="translate(347.503142 281.717786) scale(0.09 -0.09)">
     <defs>
      <path id="DejaVuSans-Bold-35" d="M 678 4666 
L 3669 4666 
L 3669 3781 
L 1638 3781 
L 1638 3059 
Q 1775 3097 1914 3117 
Q 2053 3138 2203 3138 
Q 3056 3138 3531 2711 
Q 4006 2284 4006 1522 
Q 4006 766 3489 337 
Q 2972 -91 2053 -91 
Q 1656 -91 1267 -14 
Q 878 63 494 219 
L 494 1166 
Q 875 947 1217 837 
Q 1559 728 1863 728 
Q 2300 728 2551 942 
Q 2803 1156 2803 1522 
Q 2803 1891 2551 2103 
Q 2300 2316 1863 2316 
Q 1603 2316 1309 2248 
Q 1016 2181 678 2041 
L 678 4666 
z
" transform="scale(0.015625)"/>
     </defs>
     <use xlink:href="#DejaVuSans-Bold-4c"/>
     <use xlink:href="#DejaVuSans-Bold-35" transform="translate(63.720703 0)"/>
    </g>
   </g>
   <g id="text_26">
    <!-- L6 -->
    <g style="fill: #d62728" transform="translate(304.422192 247.988516) scale(0.09 -0.09)">
     <defs>
      <path id="DejaVuSans-Bold-36" d="M 2316 2303 
Q 2000 2303 1842 2098 
Q 1684 1894 1684 1484 
Q 1684 1075 1842 870 
Q 2000 666 2316 666 
Q 2634 666 2792 870 
Q 2950 1075 2950 1484 
Q 2950 1894 2792 2098 
Q 2634 2303 2316 2303 
z
M 3803 4544 
L 3803 3681 
Q 3506 3822 3243 3889 
Q 2981 3956 2731 3956 
Q 2194 3956 1894 3657 
Q 1594 3359 1544 2772 
Q 1750 2925 1990 3001 
Q 2231 3078 2516 3078 
Q 3231 3078 3670 2659 
Q 4109 2241 4109 1563 
Q 4109 813 3618 361 
Q 3128 -91 2303 -91 
Q 1394 -91 895 523 
Q 397 1138 397 2266 
Q 397 3422 980 4083 
Q 1563 4744 2578 4744 
Q 2900 4744 3203 4694 
Q 3506 4644 3803 4544 
z
" transform="scale(0.015625)"/>
     </defs>
     <use xlink:href="#DejaVuSans-Bold-4c"/>
     <use xlink:href="#DejaVuSans-Bold-36" transform="translate(63.720703 0)"/>
    </g>
   </g>
   <g id="text_27">
    <!-- L7 -->
    <g style="fill: #ff9896" transform="translate(261.341242 214.259247) scale(0.09 -0.09)">
     <defs>
      <path id="DejaVuSans-Bold-37" d="M 428 4666 
L 3944 4666 
L 3944 3988 
L 2125 0 
L 953 0 
L 2675 3781 
L 428 3781 
L 428 4666 
z
" transform="scale(0.015625)"/>
     </defs>
     <use xlink:href="#DejaVuSans-Bold-4c"/>
     <use xlink:href="#DejaVuSans-Bold-37" transform="translate(63.720703 0)"/>
    </g>
   </g>
   <g id="text_28">
    <!-- L8 -->
    <g style="fill: #9467bd" transform="translate(392.370566 257.360087) scale(0.09 -0.09)">
     <defs>
      <path id="DejaVuSans-Bold-38" d="M 2228 2088 
Q 1891 2088 1709 1903 
Q 1528 1719 1528 1375 
Q 1528 1031 1709 848 
Q 1891 666 2228 666 
Q 2563 666 2741 848 
Q 2919 1031 2919 1375 
Q 2919 1722 2741 1905 
Q 2563 2088 2228 2088 
z
M 1350 2484 
Q 925 2613 709 2878 
Q 494 3144 494 3541 
Q 494 4131 934 4440 
Q 1375 4750 2228 4750 
Q 3075 4750 3515 4442 
Q 3956 4134 3956 3541 
Q 3956 3144 3739 2878 
Q 3522 2613 3097 2484 
Q 3572 2353 3814 2058 
Q 4056 1763 4056 1313 
Q 4056 619 3595 264 
Q 3134 -91 2228 -91 
Q 1319 -91 855 264 
Q 391 619 391 1313 
Q 391 1763 633 2058 
Q 875 2353 1350 2484 
z
M 1631 3419 
Q 1631 3141 1786 2991 
Q 1941 2841 2228 2841 
Q 2509 2841 2662 2991 
Q 2816 3141 2816 3419 
Q 2816 3697 2662 3845 
Q 2509 3994 2228 3994 
Q 1941 3994 1786 3844 
Q 1631 3694 1631 3419 
z
" transform="scale(0.015625)"/>
     </defs>
     <use xlink:href="#DejaVuSans-Bold-4c"/>
     <use xlink:href="#DejaVuSans-Bold-38" transform="translate(63.720703 0)"/>
    </g>
   </g>
   <g id="text_29">
    <!-- L9 -->
    <g style="fill: #c5b0d5" transform="translate(349.289616 223.630818) scale(0.09 -0.09)">
     <defs>
      <path id="DejaVuSans-Bold-39" d="M 641 103 
L 641 966 
Q 928 831 1190 764 
Q 1453 697 1709 697 
Q 2247 697 2547 995 
Q 2847 1294 2900 1881 
Q 2688 1725 2447 1647 
Q 2206 1569 1925 1569 
Q 1209 1569 770 1986 
Q 331 2403 331 3084 
Q 331 3838 820 4291 
Q 1309 4744 2131 4744 
Q 3044 4744 3544 4128 
Q 4044 3513 4044 2388 
Q 4044 1231 3459 570 
Q 2875 -91 1856 -91 
Q 1528 -91 1228 -42 
Q 928 6 641 103 
z
M 2125 2350 
Q 2441 2350 2600 2554 
Q 2759 2759 2759 3169 
Q 2759 3575 2600 3781 
Q 2441 3988 2125 3988 
Q 1809 3988 1650 3781 
Q 1491 3575 1491 3169 
Q 1491 2759 1650 2554 
Q 1809 2350 2125 2350 
z
" transform="scale(0.015625)"/>
     </defs>
     <use xlink:href="#DejaVuSans-Bold-4c"/>
     <use xlink:href="#DejaVuSans-Bold-39" transform="translate(63.720703 0)"/>
    </g>
   </g>
   <g id="text_30">
    <!-- L10 -->
    <g style="fill: #8c564b" transform="translate(303.07765 189.901548) scale(0.09 -0.09)">
     <use xlink:href="#DejaVuSans-Bold-4c"/>
     <use xlink:href="#DejaVuSans-Bold-31" transform="translate(63.720703 0)"/>
     <use xlink:href="#DejaVuSans-Bold-30" transform="translate(133.300781 0)"/>
    </g>
   </g>
   <g id="text_31">
    <!-- L11 -->
    <g style="fill: #c49c94" transform="translate(259.9967 156.172278) scale(0.09 -0.09)">
     <use xlink:href="#DejaVuSans-Bold-4c"/>
     <use xlink:href="#DejaVuSans-Bold-31" transform="translate(63.720703 0)"/>
     <use xlink:href="#DejaVuSans-Bold-31" transform="translate(133.300781 0)"/>
    </g>
   </g>
   <g id="text_32">
    <!-- L12 -->
    <g style="fill: #e377c2" transform="translate(391.026024 199.273119) scale(0.09 -0.09)">
     <use xlink:href="#DejaVuSans-Bold-4c"/>
     <use xlink:href="#DejaVuSans-Bold-31" transform="translate(63.720703 0)"/>
     <use xlink:href="#DejaVuSans-Bold-32" transform="translate(133.300781 0)"/>
    </g>
   </g>
   <g id="text_33">
    <!-- L13 -->
    <g style="fill: #f7b6d2" transform="translate(347.945074 165.543849) scale(0.09 -0.09)">
     <use xlink:href="#DejaVuSans-Bold-4c"/>
     <use xlink:href="#DejaVuSans-Bold-31" transform="translate(63.720703 0)"/>
     <use xlink:href="#DejaVuSans-Bold-33" transform="translate(133.300781 0)"/>
    </g>
   </g>
   <g id="text_34">
    <!-- L14 -->
    <g style="fill: #7f7f7f" transform="translate(304.864124 131.814579) scale(0.09 -0.09)">
     <use xlink:href="#DejaVuSans-Bold-4c"/>
     <use xlink:href="#DejaVuSans-Bold-31" transform="translate(63.720703 0)"/>
     <use xlink:href="#DejaVuSans-Bold-34" transform="translate(133.300781 0)"/>
    </g>
   </g>
   <g id="text_35">
    <!-- L15 -->
    <g style="fill: #c7c7c7" transform="translate(261.783173 98.08531) scale(0.09 -0.09)">
     <use xlink:href="#DejaVuSans-Bold-4c"/>
     <use xlink:href="#DejaVuSans-Bold-31" transform="translate(63.720703 0)"/>
     <use xlink:href="#DejaVuSans-Bold-35" transform="translate(133.300781 0)"/>
    </g>
   </g>
   <g id="text_36">
    <!-- L16 -->
    <g style="fill: #bcbd22" transform="translate(389.5534 143.674626) scale(0.09 -0.09)">
     <use xlink:href="#DejaVuSans-Bold-4c"/>
     <use xlink:href="#DejaVuSans-Bold-31" transform="translate(63.720703 0)"/>
     <use xlink:href="#DejaVuSans-Bold-36" transform="translate(133.300781 0)"/>
    </g>
   </g>
   <g id="text_37">
    <!-- L17 -->
    <g style="fill: #dbdb8d" transform="translate(346.47245 109.945356) scale(0.09 -0.09)">
     <use xlink:href="#DejaVuSans-Bold-4c"/>
     <use xlink:href="#DejaVuSans-Bold-31" transform="translate(63.720703 0)"/>
     <use xlink:href="#DejaVuSans-Bold-37" transform="translate(133.300781 0)"/>
    </g>
   </g>
   <g id="text_38">
    <!-- L18 -->
    <g style="fill: #17becf" transform="translate(303.3915 76.216086) scale(0.09 -0.09)">
     <use xlink:href="#DejaVuSans-Bold-4c"/>
     <use xlink:href="#DejaVuSans-Bold-31" transform="translate(63.720703 0)"/>
     <use xlink:href="#DejaVuSans-Bold-38" transform="translate(133.300781 0)"/>
    </g>
   </g>
   <g id="text_39">
    <!-- L19 -->
    <g style="fill: #9edae5" transform="translate(260.31055 42.486817) scale(0.09 -0.09)">
     <use xlink:href="#DejaVuSans-Bold-4c"/>
     <use xlink:href="#DejaVuSans-Bold-31" transform="translate(63.720703 0)"/>
     <use xlink:href="#DejaVuSans-Bold-39" transform="translate(133.300781 0)"/>
    </g>
   </g>
   <g id="PathCollection_1">
    <defs>
     <path id="m85ace56b0b" d="M 0 7.071068 
C 1.875269 7.071068 3.673985 6.326016 5 5 
C 6.326016 3.673985 7.071068 1.875269 7.071068 0 
C 7.071068 -1.875269 6.326016 -3.673985 5 -5 
C 3.673985 -6.326016 1.875269 -7.071068 0 -7.071068 
C -1.875269 -7.071068 -3.673985 -6.326016 -5 -5 
C -6.326016 -3.673985 -7.071068 -1.875269 -7.071068 0 
C -7.071068 1.875269 -6.326016 3.673985 -5 5 
C -3.673985 6.326016 -1.875269 7.071068 0 7.071068 
z
" style="stroke: #000000"/>
    </defs>
    <g clip-path="url(#p92cf4af231)">
     <use xlink:href="#m85ace56b0b" x="409.304991" y="444.448513" style="stroke: #000000"/>
     <use xlink:href="#m85ace56b0b" x="366.224041" y="410.719243" style="stroke: #000000"/>
     <use xlink:href="#m85ace56b0b" x="323.143091" y="376.989974" style="stroke: #000000"/>
     <use xlink:href="#m85ace56b0b" x="280.06214" y="343.260704" style="stroke: #000000"/>
     <use xlink:href="#m85ace56b0b" x="236.98119" y="309.531434" style="stroke: #000000"/>
     <use xlink:href="#m85ace56b0b" x="411.091465" y="386.361545" style="stroke: #000000"/>
     <use xlink:href="#m85ace56b0b" x="368.010515" y="352.632275" style="stroke: #000000"/>
     <use xlink:href="#m85ace56b0b" x="324.929564" y="318.903005" style="stroke: #000000"/>
     <use xlink:href="#m85ace56b0b" x="281.848614" y="285.173736" style="stroke: #000000"/>
     <use xlink:href="#m85ace56b0b" x="238.767664" y="251.444466" style="stroke: #000000"/>
     <use xlink:href="#m85ace56b0b" x="412.877938" y="328.274576" style="stroke: #000000"/>
     <use xlink:href="#m85ace56b0b" x="369.796988" y="294.545307" style="stroke: #000000"/>
     <use xlink:href="#m85ace56b0b" x="326.716038" y="260.816037" style="stroke: #000000"/>
     <use xlink:href="#m85ace56b0b" x="283.635088" y="227.086767" style="stroke: #000000"/>
     <use xlink:href="#m85ace56b0b" x="240.554138" y="193.357497" style="stroke: #000000"/>
     <use xlink:href="#m85ace56b0b" x="414.664412" y="270.187608" style="stroke: #000000"/>
     <use xlink:href="#m85ace56b0b" x="371.583462" y="236.458338" style="stroke: #000000"/>
     <use xlink:href="#m85ace56b0b" x="328.502512" y="202.729068" style="stroke: #000000"/>
     <use xlink:href="#m85ace56b0b" x="285.421562" y="168.999799" style="stroke: #000000"/>
     <use xlink:href="#m85ace56b0b" x="242.340611" y="135.270529" style="stroke: #000000"/>
     <use xlink:href="#m85ace56b0b" x="416.450886" y="212.100639" style="stroke: #000000"/>
     <use xlink:href="#m85ace56b0b" x="373.369936" y="178.37137" style="stroke: #000000"/>
     <use xlink:href="#m85ace56b0b" x="330.288985" y="144.6421" style="stroke: #000000"/>
     <use xlink:href="#m85ace56b0b" x="287.208035" y="110.91283" style="stroke: #000000"/>
     <use xlink:href="#m85ace56b0b" x="244.127085" y="77.183561" style="stroke: #000000"/>
    </g>
   </g>
   <g id="PathCollection_2">
    <defs>
     <path id="mee20efd6d2" d="M 0 7.071068 
C 1.875269 7.071068 3.673985 6.326016 5 5 
C 6.326016 3.673985 7.071068 1.875269 7.071068 0 
C 7.071068 -1.875269 6.326016 -3.673985 5 -5 
C 3.673985 -6.326016 1.875269 -7.071068 0 -7.071068 
C -1.875269 -7.071068 -3.673985 -6.326016 -5 -5 
C -6.326016 -3.673985 -7.071068 -1.875269 -7.071068 0 
C -7.071068 1.875269 -6.326016 3.673985 -5 5 
C -3.673985 6.326016 -1.875269 7.071068 0 7.071068 
z
" style="stroke: #808080"/>
    </defs>
    <g clip-path="url(#p92cf4af231)">
     <use xlink:href="#mee20efd6d2" x="423.367915" y="420.090814" style="fill: #808080; stroke: #808080"/>
     <use xlink:href="#mee20efd6d2" x="380.286965" y="386.361545" style="fill: #808080; stroke: #808080"/>
     <use xlink:href="#mee20efd6d2" x="337.206015" y="352.632275" style="fill: #808080; stroke: #808080"/>
     <use xlink:href="#mee20efd6d2" x="294.125064" y="318.903005" style="fill: #808080; stroke: #808080"/>
     <use xlink:href="#mee20efd6d2" x="251.044114" y="285.173736" style="fill: #808080; stroke: #808080"/>
     <use xlink:href="#mee20efd6d2" x="425.154389" y="362.003846" style="fill: #808080; stroke: #808080"/>
     <use xlink:href="#mee20efd6d2" x="382.073438" y="328.274576" style="fill: #808080; stroke: #808080"/>
     <use xlink:href="#mee20efd6d2" x="338.992488" y="294.545307" style="fill: #808080; stroke: #808080"/>
     <use xlink:href="#mee20efd6d2" x="295.911538" y="260.816037" style="fill: #808080; stroke: #808080"/>
     <use xlink:href="#mee20efd6d2" x="252.830588" y="227.086767" style="fill: #808080; stroke: #808080"/>
     <use xlink:href="#mee20efd6d2" x="426.940862" y="303.916878" style="fill: #808080; stroke: #808080"/>
     <use xlink:href="#mee20efd6d2" x="383.859912" y="270.187608" style="fill: #808080; stroke: #808080"/>
     <use xlink:href="#mee20efd6d2" x="340.778962" y="236.458338" style="fill: #808080; stroke: #808080"/>
     <use xlink:href="#mee20efd6d2" x="297.698012" y="202.729068" style="fill: #808080; stroke: #808080"/>
     <use xlink:href="#mee20efd6d2" x="254.617062" y="168.999799" style="fill: #808080; stroke: #808080"/>
     <use xlink:href="#mee20efd6d2" x="428.727336" y="245.829909" style="fill: #808080; stroke: #808080"/>
     <use xlink:href="#mee20efd6d2" x="385.646386" y="212.100639" style="fill: #808080; stroke: #808080"/>
     <use xlink:href="#mee20efd6d2" x="342.565436" y="178.37137" style="fill: #808080; stroke: #808080"/>
     <use xlink:href="#mee20efd6d2" x="299.484485" y="144.6421" style="fill: #808080; stroke: #808080"/>
     <use xlink:href="#mee20efd6d2" x="256.403535" y="110.91283" style="fill: #808080; stroke: #808080"/>
     <use xlink:href="#mee20efd6d2" x="430.51381" y="187.742941" style="fill: #808080; stroke: #808080"/>
     <use xlink:href="#mee20efd6d2" x="387.43286" y="154.013671" style="fill: #808080; stroke: #808080"/>
     <use xlink:href="#mee20efd6d2" x="344.351909" y="120.284401" style="fill: #808080; stroke: #808080"/>
     <use xlink:href="#mee20efd6d2" x="301.270959" y="86.555132" style="fill: #808080; stroke: #808080"/>
     <use xlink:href="#mee20efd6d2" x="258.190009" y="52.825862" style="fill: #808080; stroke: #808080"/>
    </g>
   </g>
   <g id="text_40">
    <!-- Distorted Honeycomb Lattice (5x5) -->
    <g transform="translate(175.378438 20.877187) scale(0.18 -0.18)">
     <defs>
      <path id="DejaVuSans-44" d="M 1259 4147 
L 1259 519 
L 2022 519 
Q 2988 519 3436 956 
Q 3884 1394 3884 2338 
Q 3884 3275 3436 3711 
Q 2988 4147 2022 4147 
L 1259 4147 
z
M 628 4666 
L 1925 4666 
Q 3281 4666 3915 4102 
Q 4550 3538 4550 2338 
Q 4550 1131 3912 565 
Q 3275 0 1925 0 
L 628 0 
L 628 4666 
z
" transform="scale(0.015625)"/>
      <path id="DejaVuSans-73" d="M 2834 3397 
L 2834 2853 
Q 2591 2978 2328 3040 
Q 2066 3103 1784 3103 
Q 1356 3103 1142 2972 
Q 928 2841 928 2578 
Q 928 2378 1081 2264 
Q 1234 2150 1697 2047 
L 1894 2003 
Q 2506 1872 2764 1633 
Q 3022 1394 3022 966 
Q 3022 478 2636 193 
Q 2250 -91 1575 -91 
Q 1294 -91 989 -36 
Q 684 19 347 128 
L 347 722 
Q 666 556 975 473 
Q 1284 391 1588 391 
Q 1994 391 2212 530 
Q 2431 669 2431 922 
Q 2431 1156 2273 1281 
Q 2116 1406 1581 1522 
L 1381 1569 
Q 847 1681 609 1914 
Q 372 2147 372 2553 
Q 372 3047 722 3315 
Q 1072 3584 1716 3584 
Q 2034 3584 2315 3537 
Q 2597 3491 2834 3397 
z
" transform="scale(0.015625)"/>
      <path id="DejaVuSans-48" d="M 628 4666 
L 1259 4666 
L 1259 2753 
L 3553 2753 
L 3553 4666 
L 4184 4666 
L 4184 0 
L 3553 0 
L 3553 2222 
L 1259 2222 
L 1259 0 
L 628 0 
L 628 4666 
z
" transform="scale(0.015625)"/>
      <path id="DejaVuSans-79" d="M 2059 -325 
Q 1816 -950 1584 -1140 
Q 1353 -1331 966 -1331 
L 506 -1331 
L 506 -850 
L 844 -850 
Q 1081 -850 1212 -737 
Q 1344 -625 1503 -206 
L 1606 56 
L 191 3500 
L 800 3500 
L 1894 763 
L 2988 3500 
L 3597 3500 
L 2059 -325 
z
" transform="scale(0.015625)"/>
      <path id="DejaVuSans-62" d="M 3116 1747 
Q 3116 2381 2855 2742 
Q 2594 3103 2138 3103 
Q 1681 3103 1420 2742 
Q 1159 2381 1159 1747 
Q 1159 1113 1420 752 
Q 1681 391 2138 391 
Q 2594 391 2855 752 
Q 3116 1113 3116 1747 
z
M 1159 2969 
Q 1341 3281 1617 3432 
Q 1894 3584 2278 3584 
Q 2916 3584 3314 3078 
Q 3713 2572 3713 1747 
Q 3713 922 3314 415 
Q 2916 -91 2278 -91 
Q 1894 -91 1617 61 
Q 1341 213 1159 525 
L 1159 0 
L 581 0 
L 581 4863 
L 1159 4863 
L 1159 2969 
z
" transform="scale(0.015625)"/>
      <path id="DejaVuSans-4c" d="M 628 4666 
L 1259 4666 
L 1259 531 
L 3531 531 
L 3531 0 
L 628 0 
L 628 4666 
z
" transform="scale(0.015625)"/>
      <path id="DejaVuSans-28" d="M 1984 4856 
Q 1566 4138 1362 3434 
Q 1159 2731 1159 2009 
Q 1159 1288 1364 580 
Q 1569 -128 1984 -844 
L 1484 -844 
Q 1016 -109 783 600 
Q 550 1309 550 2009 
Q 550 2706 781 3412 
Q 1013 4119 1484 4856 
L 1984 4856 
z
" transform="scale(0.015625)"/>
      <path id="DejaVuSans-78" d="M 3513 3500 
L 2247 1797 
L 3578 0 
L 2900 0 
L 1881 1375 
L 863 0 
L 184 0 
L 1544 1831 
L 300 3500 
L 978 3500 
L 1906 2253 
L 2834 3500 
L 3513 3500 
z
" transform="scale(0.015625)"/>
      <path id="DejaVuSans-29" d="M 513 4856 
L 1013 4856 
Q 1481 4119 1714 3412 
Q 1947 2706 1947 2009 
Q 1947 1309 1714 600 
Q 1481 -109 1013 -844 
L 513 -844 
Q 928 -128 1133 580 
Q 1338 1288 1338 2009 
Q 1338 2731 1133 3434 
Q 928 4138 513 4856 
z
" transform="scale(0.015625)"/>
     </defs>
     <use xlink:href="#DejaVuSans-44"/>
     <use xlink:href="#DejaVuSans-69" transform="translate(77.001953 0)"/>
     <use xlink:href="#DejaVuSans-73" transform="translate(104.785156 0)"/>
     <use xlink:href="#DejaVuSans-74" transform="translate(156.884766 0)"/>
     <use xlink:href="#DejaVuSans-6f" transform="translate(196.09375 0)"/>
     <use xlink:href="#DejaVuSans-72" transform="translate(257.275391 0)"/>
     <use xlink:href="#DejaVuSans-74" transform="translate(298.388672 0)"/>
     <use xlink:href="#DejaVuSans-65" transform="translate(337.597656 0)"/>
     <use xlink:href="#DejaVuSans-64" transform="translate(399.121094 0)"/>
     <use xlink:href="#DejaVuSans-20" transform="translate(462.597656 0)"/>
     <use xlink:href="#DejaVuSans-48" transform="translate(494.384766 0)"/>
     <use xlink:href="#DejaVuSans-6f" transform="translate(569.580078 0)"/>
     <use xlink:href="#DejaVuSans-6e" transform="translate(630.761719 0)"/>
     <use xlink:href="#DejaVuSans-65" transform="translate(694.140625 0)"/>
     <use xlink:href="#DejaVuSans-79" transform="translate(755.664062 0)"/>
     <use xlink:href="#DejaVuSans-63" transform="translate(814.84375 0)"/>
     <use xlink:href="#DejaVuSans-6f" transform="translate(869.824219 0)"/>
     <use xlink:href="#DejaVuSans-6d" transform="translate(931.005859 0)"/>
     <use xlink:href="#DejaVuSans-62" transform="translate(1028.417969 0)"/>
     <use xlink:href="#DejaVuSans-20" transform="translate(1091.894531 0)"/>
     <use xlink:href="#DejaVuSans-4c" transform="translate(1123.681641 0)"/>
     <use xlink:href="#DejaVuSans-61" transform="translate(1179.394531 0)"/>
     <use xlink:href="#DejaVuSans-74" transform="translate(1240.673828 0)"/>
     <use xlink:href="#DejaVuSans-74" transform="translate(1279.882812 0)"/>
     <use xlink:href="#DejaVuSans-69" transform="translate(1319.091797 0)"/>
     <use xlink:href="#DejaVuSans-63" transform="translate(1346.875 0)"/>
     <use xlink:href="#DejaVuSans-65" transform="translate(1401.855469 0)"/>
     <use xlink:href="#DejaVuSans-20" transform="translate(1463.378906 0)"/>
     <use xlink:href="#DejaVuSans-28" transform="translate(1495.166016 0)"/>
     <use xlink:href="#DejaVuSans-35" transform="translate(1534.179688 0)"/>
     <use xlink:href="#DejaVuSans-78" transform="translate(1597.802734 0)"/>
     <use xlink:href="#DejaVuSans-35" transform="translate(1656.982422 0)"/>
     <use xlink:href="#DejaVuSans-29" transform="translate(1720.605469 0)"/>
    </g>
   </g>
   <g id="text_41">
    <!-- 0 -->
    <g style="fill: #ffffff" transform="translate(406.521866 446.656013) scale(0.08 -0.08)">
     <use xlink:href="#DejaVuSans-Bold-30"/>
    </g>
   </g>
   <g id="text_42">
    <!-- 1 -->
    <g style="fill: #ffffff" transform="translate(363.440916 412.926743) scale(0.08 -0.08)">
     <use xlink:href="#DejaVuSans-Bold-31"/>
    </g>
   </g>
   <g id="text_43">
    <!-- 2 -->
    <g style="fill: #ffffff" transform="translate(320.359966 379.197474) scale(0.08 -0.08)">
     <use xlink:href="#DejaVuSans-Bold-32"/>
    </g>
   </g>
   <g id="text_44">
    <!-- 3 -->
    <g style="fill: #ffffff" transform="translate(277.279015 345.468204) scale(0.08 -0.08)">
     <use xlink:href="#DejaVuSans-Bold-33"/>
    </g>
   </g>
   <g id="text_45">
    <!-- 4 -->
    <g style="fill: #ffffff" transform="translate(234.198065 311.738934) scale(0.08 -0.08)">
     <use xlink:href="#DejaVuSans-Bold-34"/>
    </g>
   </g>
   <g id="text_46">
    <!-- 5 -->
    <g style="fill: #ffffff" transform="translate(408.30834 388.569045) scale(0.08 -0.08)">
     <use xlink:href="#DejaVuSans-Bold-35"/>
    </g>
   </g>
   <g id="text_47">
    <!-- 6 -->
    <g style="fill: #ffffff" transform="translate(365.22739 354.839775) scale(0.08 -0.08)">
     <use xlink:href="#DejaVuSans-Bold-36"/>
    </g>
   </g>
   <g id="text_48">
    <!-- 7 -->
    <g style="fill: #ffffff" transform="translate(322.146439 321.110505) scale(0.08 -0.08)">
     <use xlink:href="#DejaVuSans-Bold-37"/>
    </g>
   </g>
   <g id="text_49">
    <!-- 8 -->
    <g style="fill: #ffffff" transform="translate(279.065489 287.381236) scale(0.08 -0.08)">
     <use xlink:href="#DejaVuSans-Bold-38"/>
    </g>
   </g>
   <g id="text_50">
    <!-- 9 -->
    <g style="fill: #ffffff" transform="translate(235.984539 253.651966) scale(0.08 -0.08)">
     <use xlink:href="#DejaVuSans-Bold-39"/>
    </g>
   </g>
   <g id="text_51">
    <!-- 10 -->
    <g style="fill: #ffffff" transform="translate(407.311688 330.482076) scale(0.08 -0.08)">
     <use xlink:href="#DejaVuSans-Bold-31"/>
     <use xlink:href="#DejaVuSans-Bold-30" transform="translate(69.580078 0)"/>
    </g>
   </g>
   <g id="text_52">
    <!-- 11 -->
    <g style="fill: #ffffff" transform="translate(364.230738 296.752807) scale(0.08 -0.08)">
     <use xlink:href="#DejaVuSans-Bold-31"/>
     <use xlink:href="#DejaVuSans-Bold-31" transform="translate(69.580078 0)"/>
    </g>
   </g>
   <g id="text_53">
    <!-- 12 -->
    <g style="fill: #ffffff" transform="translate(321.149788 263.023537) scale(0.08 -0.08)">
     <use xlink:href="#DejaVuSans-Bold-31"/>
     <use xlink:href="#DejaVuSans-Bold-32" transform="translate(69.580078 0)"/>
    </g>
   </g>
   <g id="text_54">
    <!-- 13 -->
    <g style="fill: #ffffff" transform="translate(278.068838 229.294267) scale(0.08 -0.08)">
     <use xlink:href="#DejaVuSans-Bold-31"/>
     <use xlink:href="#DejaVuSans-Bold-33" transform="translate(69.580078 0)"/>
    </g>
   </g>
   <g id="text_55">
    <!-- 14 -->
    <g style="fill: #ffffff" transform="translate(234.987888 195.564997) scale(0.08 -0.08)">
     <use xlink:href="#DejaVuSans-Bold-31"/>
     <use xlink:href="#DejaVuSans-Bold-34" transform="translate(69.580078 0)"/>
    </g>
   </g>
   <g id="text_56">
    <!-- 15 -->
    <g style="fill: #ffffff" transform="translate(409.098162 272.395108) scale(0.08 -0.08)">
     <use xlink:href="#DejaVuSans-Bold-31"/>
     <use xlink:href="#DejaVuSans-Bold-35" transform="translate(69.580078 0)"/>
    </g>
   </g>
   <g id="text_57">
    <!-- 16 -->
    <g style="fill: #ffffff" transform="translate(366.017212 238.665838) scale(0.08 -0.08)">
     <use xlink:href="#DejaVuSans-Bold-31"/>
     <use xlink:href="#DejaVuSans-Bold-36" transform="translate(69.580078 0)"/>
    </g>
   </g>
   <g id="text_58">
    <!-- 17 -->
    <g style="fill: #ffffff" transform="translate(322.936262 204.936568) scale(0.08 -0.08)">
     <use xlink:href="#DejaVuSans-Bold-31"/>
     <use xlink:href="#DejaVuSans-Bold-37" transform="translate(69.580078 0)"/>
    </g>
   </g>
   <g id="text_59">
    <!-- 18 -->
    <g style="fill: #ffffff" transform="translate(279.855312 171.207299) scale(0.08 -0.08)">
     <use xlink:href="#DejaVuSans-Bold-31"/>
     <use xlink:href="#DejaVuSans-Bold-38" transform="translate(69.580078 0)"/>
    </g>
   </g>
   <g id="text_60">
    <!-- 19 -->
    <g style="fill: #ffffff" transform="translate(236.774361 137.478029) scale(0.08 -0.08)">
     <use xlink:href="#DejaVuSans-Bold-31"/>
     <use xlink:href="#DejaVuSans-Bold-39" transform="translate(69.580078 0)"/>
    </g>
   </g>
   <g id="text_61">
    <!-- 20 -->
    <g style="fill: #ffffff" transform="translate(410.884636 214.308139) scale(0.08 -0.08)">
     <use xlink:href="#DejaVuSans-Bold-32"/>
     <use xlink:href="#DejaVuSans-Bold-30" transform="translate(69.580078 0)"/>
    </g>
   </g>
   <g id="text_62">
    <!-- 21 -->
    <g style="fill: #ffffff" transform="translate(367.803686 180.57887) scale(0.08 -0.08)">
     <use xlink:href="#DejaVuSans-Bold-32"/>
     <use xlink:href="#DejaVuSans-Bold-31" transform="translate(69.580078 0)"/>
    </g>
   </g>
   <g id="text_63">
    <!-- 22 -->
    <g style="fill: #ffffff" transform="translate(324.722735 146.8496) scale(0.08 -0.08)">
     <use xlink:href="#DejaVuSans-Bold-32"/>
     <use xlink:href="#DejaVuSans-Bold-32" transform="translate(69.580078 0)"/>
    </g>
   </g>
   <g id="text_64">
    <!-- 23 -->
    <g style="fill: #ffffff" transform="translate(281.641785 113.12033) scale(0.08 -0.08)">
     <use xlink:href="#DejaVuSans-Bold-32"/>
     <use xlink:href="#DejaVuSans-Bold-33" transform="translate(69.580078 0)"/>
    </g>
   </g>
   <g id="text_65">
    <!-- 24 -->
    <g style="fill: #ffffff" transform="translate(238.560835 79.391061) scale(0.08 -0.08)">
     <use xlink:href="#DejaVuSans-Bold-32"/>
     <use xlink:href="#DejaVuSans-Bold-34" transform="translate(69.580078 0)"/>
    </g>
   </g>
   <g id="text_66">
    <!-- 25 -->
    <g style="fill: #ffffff" transform="translate(417.801665 422.298314) scale(0.08 -0.08)">
     <use xlink:href="#DejaVuSans-Bold-32"/>
     <use xlink:href="#DejaVuSans-Bold-35" transform="translate(69.580078 0)"/>
    </g>
   </g>
   <g id="text_67">
    <!-- 26 -->
    <g style="fill: #ffffff" transform="translate(374.720715 388.569045) scale(0.08 -0.08)">
     <use xlink:href="#DejaVuSans-Bold-32"/>
     <use xlink:href="#DejaVuSans-Bold-36" transform="translate(69.580078 0)"/>
    </g>
   </g>
   <g id="text_68">
    <!-- 27 -->
    <g style="fill: #ffffff" transform="translate(331.639765 354.839775) scale(0.08 -0.08)">
     <use xlink:href="#DejaVuSans-Bold-32"/>
     <use xlink:href="#DejaVuSans-Bold-37" transform="translate(69.580078 0)"/>
    </g>
   </g>
   <g id="text_69">
    <!-- 28 -->
    <g style="fill: #ffffff" transform="translate(288.558814 321.110505) scale(0.08 -0.08)">
     <use xlink:href="#DejaVuSans-Bold-32"/>
     <use xlink:href="#DejaVuSans-Bold-38" transform="translate(69.580078 0)"/>
    </g>
   </g>
   <g id="text_70">
    <!-- 29 -->
    <g style="fill: #ffffff" transform="translate(245.477864 287.381236) scale(0.08 -0.08)">
     <use xlink:href="#DejaVuSans-Bold-32"/>
     <use xlink:href="#DejaVuSans-Bold-39" transform="translate(69.580078 0)"/>
    </g>
   </g>
   <g id="text_71">
    <!-- 30 -->
    <g style="fill: #ffffff" transform="translate(419.588139 364.211346) scale(0.08 -0.08)">
     <use xlink:href="#DejaVuSans-Bold-33"/>
     <use xlink:href="#DejaVuSans-Bold-30" transform="translate(69.580078 0)"/>
    </g>
   </g>
   <g id="text_72">
    <!-- 31 -->
    <g style="fill: #ffffff" transform="translate(376.507188 330.482076) scale(0.08 -0.08)">
     <use xlink:href="#DejaVuSans-Bold-33"/>
     <use xlink:href="#DejaVuSans-Bold-31" transform="translate(69.580078 0)"/>
    </g>
   </g>
   <g id="text_73">
    <!-- 32 -->
    <g style="fill: #ffffff" transform="translate(333.426238 296.752807) scale(0.08 -0.08)">
     <use xlink:href="#DejaVuSans-Bold-33"/>
     <use xlink:href="#DejaVuSans-Bold-32" transform="translate(69.580078 0)"/>
    </g>
   </g>
   <g id="text_74">
    <!-- 33 -->
    <g style="fill: #ffffff" transform="translate(290.345288 263.023537) scale(0.08 -0.08)">
     <use xlink:href="#DejaVuSans-Bold-33"/>
     <use xlink:href="#DejaVuSans-Bold-33" transform="translate(69.580078 0)"/>
    </g>
   </g>
   <g id="text_75">
    <!-- 34 -->
    <g style="fill: #ffffff" transform="translate(247.264338 229.294267) scale(0.08 -0.08)">
     <use xlink:href="#DejaVuSans-Bold-33"/>
     <use xlink:href="#DejaVuSans-Bold-34" transform="translate(69.580078 0)"/>
    </g>
   </g>
   <g id="text_76">
    <!-- 35 -->
    <g style="fill: #ffffff" transform="translate(421.374612 306.124378) scale(0.08 -0.08)">
     <use xlink:href="#DejaVuSans-Bold-33"/>
     <use xlink:href="#DejaVuSans-Bold-35" transform="translate(69.580078 0)"/>
    </g>
   </g>
   <g id="text_77">
    <!-- 36 -->
    <g style="fill: #ffffff" transform="translate(378.293662 272.395108) scale(0.08 -0.08)">
     <use xlink:href="#DejaVuSans-Bold-33"/>
     <use xlink:href="#DejaVuSans-Bold-36" transform="translate(69.580078 0)"/>
    </g>
   </g>
   <g id="text_78">
    <!-- 37 -->
    <g style="fill: #ffffff" transform="translate(335.212712 238.665838) scale(0.08 -0.08)">
     <use xlink:href="#DejaVuSans-Bold-33"/>
     <use xlink:href="#DejaVuSans-Bold-37" transform="translate(69.580078 0)"/>
    </g>
   </g>
   <g id="text_79">
    <!-- 38 -->
    <g style="fill: #ffffff" transform="translate(292.131762 204.936568) scale(0.08 -0.08)">
     <use xlink:href="#DejaVuSans-Bold-33"/>
     <use xlink:href="#DejaVuSans-Bold-38" transform="translate(69.580078 0)"/>
    </g>
   </g>
   <g id="text_80">
    <!-- 39 -->
    <g style="fill: #ffffff" transform="translate(249.050812 171.207299) scale(0.08 -0.08)">
     <use xlink:href="#DejaVuSans-Bold-33"/>
     <use xlink:href="#DejaVuSans-Bold-39" transform="translate(69.580078 0)"/>
    </g>
   </g>
   <g id="text_81">
    <!-- 40 -->
    <g style="fill: #ffffff" transform="translate(423.161086 248.037409) scale(0.08 -0.08)">
     <use xlink:href="#DejaVuSans-Bold-34"/>
     <use xlink:href="#DejaVuSans-Bold-30" transform="translate(69.580078 0)"/>
    </g>
   </g>
   <g id="text_82">
    <!-- 41 -->
    <g style="fill: #ffffff" transform="translate(380.080136 214.308139) scale(0.08 -0.08)">
     <use xlink:href="#DejaVuSans-Bold-34"/>
     <use xlink:href="#DejaVuSans-Bold-31" transform="translate(69.580078 0)"/>
    </g>
   </g>
   <g id="text_83">
    <!-- 42 -->
    <g style="fill: #ffffff" transform="translate(336.999186 180.57887) scale(0.08 -0.08)">
     <use xlink:href="#DejaVuSans-Bold-34"/>
     <use xlink:href="#DejaVuSans-Bold-32" transform="translate(69.580078 0)"/>
    </g>
   </g>
   <g id="text_84">
    <!-- 43 -->
    <g style="fill: #ffffff" transform="translate(293.918235 146.8496) scale(0.08 -0.08)">
     <use xlink:href="#DejaVuSans-Bold-34"/>
     <use xlink:href="#DejaVuSans-Bold-33" transform="translate(69.580078 0)"/>
    </g>
   </g>
   <g id="text_85">
    <!-- 44 -->
    <g style="fill: #ffffff" transform="translate(250.837285 113.12033) scale(0.08 -0.08)">
     <use xlink:href="#DejaVuSans-Bold-34"/>
     <use xlink:href="#DejaVuSans-Bold-34" transform="translate(69.580078 0)"/>
    </g>
   </g>
   <g id="text_86">
    <!-- 45 -->
    <g style="fill: #ffffff" transform="translate(424.94756 189.950441) scale(0.08 -0.08)">
     <use xlink:href="#DejaVuSans-Bold-34"/>
     <use xlink:href="#DejaVuSans-Bold-35" transform="translate(69.580078 0)"/>
    </g>
   </g>
   <g id="text_87">
    <!-- 46 -->
    <g style="fill: #ffffff" transform="translate(381.86661 156.221171) scale(0.08 -0.08)">
     <use xlink:href="#DejaVuSans-Bold-34"/>
     <use xlink:href="#DejaVuSans-Bold-36" transform="translate(69.580078 0)"/>
    </g>
   </g>
   <g id="text_88">
    <!-- 47 -->
    <g style="fill: #ffffff" transform="translate(338.785659 122.491901) scale(0.08 -0.08)">
     <use xlink:href="#DejaVuSans-Bold-34"/>
     <use xlink:href="#DejaVuSans-Bold-37" transform="translate(69.580078 0)"/>
    </g>
   </g>
   <g id="text_89">
    <!-- 48 -->
    <g style="fill: #ffffff" transform="translate(295.704709 88.762632) scale(0.08 -0.08)">
     <use xlink:href="#DejaVuSans-Bold-34"/>
     <use xlink:href="#DejaVuSans-Bold-38" transform="translate(69.580078 0)"/>
    </g>
   </g>
   <g id="text_90">
    <!-- 49 -->
    <g style="fill: #ffffff" transform="translate(252.623759 55.033362) scale(0.08 -0.08)">
     <use xlink:href="#DejaVuSans-Bold-34"/>
     <use xlink:href="#DejaVuSans-Bold-39" transform="translate(69.580078 0)"/>
    </g>
   </g>
   <g id="legend_1">
    <g id="patch_27">
     <path d="M 501.85875 140.824062 
L 602.9475 140.824062 
Q 605.7475 140.824062 605.7475 138.024062 
L 605.7475 36.677187 
Q 605.7475 33.877187 602.9475 33.877187 
L 501.85875 33.877187 
Q 499.05875 33.877187 499.05875 36.677187 
L 499.05875 138.024062 
Q 499.05875 140.824062 501.85875 140.824062 
z
" style="fill: #ffffff; opacity: 0.8; stroke: #cccccc; stroke-linejoin: miter"/>
    </g>
    <g id="line2d_96">
     <path d="M 504.65875 45.215 
L 518.65875 45.215 
L 532.65875 45.215 
" style="fill: none; stroke: #d62728; stroke-width: 4; stroke-linecap: square"/>
    </g>
    <g id="text_91">
     <!-- r1 -->
     <g transform="translate(543.85875 50.115) scale(0.14 -0.14)">
      <use xlink:href="#DejaVuSans-72"/>
      <use xlink:href="#DejaVuSans-31" transform="translate(41.113281 0)"/>
     </g>
    </g>
    <g id="line2d_97">
     <path d="M 504.65875 65.764375 
L 518.65875 65.764375 
L 532.65875 65.764375 
" style="fill: none; stroke: #1f77b4; stroke-width: 4; stroke-linecap: square"/>
    </g>
    <g id="text_92">
     <!-- r2 -->
     <g transform="translate(543.85875 70.664375) scale(0.14 -0.14)">
      <use xlink:href="#DejaVuSans-72"/>
      <use xlink:href="#DejaVuSans-32" transform="translate(41.113281 0)"/>
     </g>
    </g>
    <g id="line2d_98">
     <path d="M 504.65875 86.31375 
L 518.65875 86.31375 
L 532.65875 86.31375 
" style="fill: none; stroke: #ff7f0e; stroke-width: 4; stroke-linecap: square"/>
    </g>
    <g id="text_93">
     <!-- r3 -->
     <g transform="translate(543.85875 91.21375) scale(0.14 -0.14)">
      <defs>
       <path id="DejaVuSans-33" d="M 2597 2516 
Q 3050 2419 3304 2112 
Q 3559 1806 3559 1356 
Q 3559 666 3084 287 
Q 2609 -91 1734 -91 
Q 1441 -91 1130 -33 
Q 819 25 488 141 
L 488 750 
Q 750 597 1062 519 
Q 1375 441 1716 441 
Q 2309 441 2620 675 
Q 2931 909 2931 1356 
Q 2931 1769 2642 2001 
Q 2353 2234 1838 2234 
L 1294 2234 
L 1294 2753 
L 1863 2753 
Q 2328 2753 2575 2939 
Q 2822 3125 2822 3475 
Q 2822 3834 2567 4026 
Q 2313 4219 1838 4219 
Q 1578 4219 1281 4162 
Q 984 4106 628 3988 
L 628 4550 
Q 988 4650 1302 4700 
Q 1616 4750 1894 4750 
Q 2613 4750 3031 4423 
Q 3450 4097 3450 3541 
Q 3450 3153 3228 2886 
Q 3006 2619 2597 2516 
z
" transform="scale(0.015625)"/>
      </defs>
      <use xlink:href="#DejaVuSans-72"/>
      <use xlink:href="#DejaVuSans-33" transform="translate(41.113281 0)"/>
     </g>
    </g>
    <g id="PathCollection_3">
     <g>
      <use xlink:href="#m85ace56b0b" x="518.65875" y="108.088125" style="stroke: #000000"/>
     </g>
    </g>
    <g id="text_94">
     <!-- A nodes -->
     <g transform="translate(543.85875 111.763125) scale(0.14 -0.14)">
      <defs>
       <path id="DejaVuSans-41" d="M 2188 4044 
L 1331 1722 
L 3047 1722 
L 2188 4044 
z
M 1831 4666 
L 2547 4666 
L 4325 0 
L 3669 0 
L 3244 1197 
L 1141 1197 
L 716 0 
L 50 0 
L 1831 4666 
z
" transform="scale(0.015625)"/>
      </defs>
      <use xlink:href="#DejaVuSans-41"/>
      <use xlink:href="#DejaVuSans-20" transform="translate(68.408203 0)"/>
      <use xlink:href="#DejaVuSans-6e" transform="translate(100.195312 0)"/>
      <use xlink:href="#DejaVuSans-6f" transform="translate(163.574219 0)"/>
      <use xlink:href="#DejaVuSans-64" transform="translate(224.755859 0)"/>
      <use xlink:href="#DejaVuSans-65" transform="translate(288.232422 0)"/>
      <use xlink:href="#DejaVuSans-73" transform="translate(349.755859 0)"/>
     </g>
    </g>
    <g id="PathCollection_4">
     <g>
      <use xlink:href="#mee20efd6d2" x="518.65875" y="128.6375" style="fill: #808080; stroke: #808080"/>
     </g>
    </g>
    <g id="text_95">
     <!-- B nodes -->
     <g transform="translate(543.85875 132.3125) scale(0.14 -0.14)">
      <defs>
       <path id="DejaVuSans-42" d="M 1259 2228 
L 1259 519 
L 2272 519 
Q 2781 519 3026 730 
Q 3272 941 3272 1375 
Q 3272 1813 3026 2020 
Q 2781 2228 2272 2228 
L 1259 2228 
z
M 1259 4147 
L 1259 2741 
L 2194 2741 
Q 2656 2741 2882 2914 
Q 3109 3088 3109 3444 
Q 3109 3797 2882 3972 
Q 2656 4147 2194 4147 
L 1259 4147 
z
M 628 4666 
L 2241 4666 
Q 2963 4666 3353 4366 
Q 3744 4066 3744 3513 
Q 3744 3084 3544 2831 
Q 3344 2578 2956 2516 
Q 3422 2416 3680 2098 
Q 3938 1781 3938 1306 
Q 3938 681 3513 340 
Q 3088 0 2303 0 
L 628 0 
L 628 4666 
z
" transform="scale(0.015625)"/>
      </defs>
      <use xlink:href="#DejaVuSans-42"/>
      <use xlink:href="#DejaVuSans-20" transform="translate(68.603516 0)"/>
      <use xlink:href="#DejaVuSans-6e" transform="translate(100.390625 0)"/>
      <use xlink:href="#DejaVuSans-6f" transform="translate(163.769531 0)"/>
      <use xlink:href="#DejaVuSans-64" transform="translate(224.951172 0)"/>
      <use xlink:href="#DejaVuSans-65" transform="translate(288.427734 0)"/>
      <use xlink:href="#DejaVuSans-73" transform="translate(349.951172 0)"/>
     </g>
    </g>
   </g>
  </g>
 </g>
 <defs>
  <clipPath id="p92cf4af231">
   <rect x="54.7475" y="26.877187" width="558" height="443.52"/>
  </clipPath>
 </defs>
</svg>
